<svg version="1" xmlns="http://www.w3.org/2000/svg" width="240" height="240" viewBox="0 0 180 180"><path d="M70 76c0 1.6.5 2.1 2.3 1.8 1.2-.2 2.2-1 2.2-1.8s-1-1.6-2.2-1.8c-1.8-.3-2.3.2-2.3 1.8zm31 0c0 1.6.5 2.1 2.3 1.8 1.2-.2 2.2-1 2.2-1.8s-1-1.6-2.2-1.8c-1.8-.3-2.3.2-2.3 1.8zm-59.2 4.4c-2.2 2.7-2.4 3.5-1.3 4 1.1.4 1.5 2.1 1.5 6 0 7.3 2.9 10.1 8.4 8 2.5-1 1.9-3.4-.9-3.4-2.7 0-3.9-2.6-3.3-7.6.2-2.1.9-3 2.6-3.2 2.8-.4 2.9-3.2.1-3.2-1.2 0-2.3-.8-2.6-2-.7-2.7-1.4-2.5-4.5 1.4zM113 78c0 .5-1 2-2.2 3.2-1.4 1.4-1.8 2.3-1 2.6.7.2 1.2 2.5 1.2 5.8 0 7.3 3.3 10.8 8.4 8.8 2.4-.9 1.9-3.2-.6-3.6-2-.3-2.3-1-2.6-5.6-.3-5-.2-5.2 2.2-5.2 1.6 0 2.6-.6 2.6-1.5s-.9-1.5-2.5-1.5c-1.8 0-2.5-.5-2.5-2 0-1.1-.7-2-1.5-2s-1.5.4-1.5 1zM55 89.5c0 8.4 0 8.5 2.5 8.5 2.4 0 2.5-.3 2.5-5.3 0-5.5 1.2-7.7 4.1-7.7 1.4 0 2.9-1.9 2.9-3.6 0-1-4.7-.3-5.9.8-1.1 1-1.4 1-1.8 0-.3-.6-1.3-1.2-2.4-1.2-1.7 0-1.9.8-1.9 8.5zm15 0c0 7.8.2 8.5 2 8.5s2-.7 2-8.5-.2-8.5-2-8.5-2 .7-2 8.5zm10 0c0 7.8.2 8.5 2 8.5 1.7 0 2-.7 2-4.3 0-5.6.9-8.4 2.7-9.1 2.9-1.1 4.3 1.4 4.3 7.5 0 5.6.1 5.9 2.5 5.9s2.5-.2 2.5-6.3c0-7.8-1.7-10.7-6.5-10.7-1.9 0-3.7.5-4.1 1.1-.4.8-.9.8-1.7 0-2.9-2.9-3.7-1.1-3.7 7.4zm21 0c0 8.4 0 8.5 2.5 8.5s2.5-.1 2.5-8.5 0-8.5-2.5-8.5-2.5.1-2.5 8.5zm22-7.6c0 .4 1.4 4.1 3 8.2 3.5 8.5 3.5 11.1 0 11.9-3.1.7-3.3 3.4-.3 3.8 4.3.6 6.1-1.6 10.2-12.3 2.3-5.8 4.1-11 4.1-11.5 0-.6-1-1-2.3-1-1.9 0-2.6.9-4.1 5.5-.9 3-1.9 5.5-2.1 5.5-.2 0-1.2-2.5-2.1-5.5-1.5-4.6-2.2-5.5-4.1-5.5-1.3 0-2.3.4-2.3.9z"/></svg>