<svg width="512pt" height="512pt" viewBox="0 0 512 512" xmlns="http://www.w3.org/2000/svg"><path d="M257.38 5.85c26.6 4.75 53.21 9.5 79.81 14.29-1.22 6.96-2.6 13.89-3.72 20.86-26.67-4.43-53.24-9.53-79.89-14.12 1.28-7.01 2.54-14.02 3.8-21.03zm-113.44 48.5c42.45 5.64 84.72 12.55 127.1 18.75 32.29 4.88 64.6 9.7 96.93 14.33-.91 7.13-2.2 14.2-3.15 21.33-48-7.2-95.95-14.73-143.93-22.02-25.64-3.74-51.19-8.1-76.94-11.02.1-7.13.05-14.25-.01-21.37zm.07 71.49c38.02 4.96 75.87 11.22 113.81 16.73 36.71 5.6 73.43 11.02 110.17 16.37-1.08 7.09-2.07 14.19-3.19 21.28-46.65-6.98-93.24-14.33-139.88-21.39-26.95-3.98-53.85-8.49-80.91-11.67-.04-7.11-.04-14.21 0-21.32zm-.07 70.37c45.98 6.18 91.77 13.65 137.68 20.35 28.77 4.37 57.56 8.62 86.37 12.75-.99 7.12-2.19 14.2-3.17 21.32-60.66-9.14-121.25-18.69-181.92-27.75-12.98-1.8-25.91-4.02-38.96-5.29.08-7.13.1-14.26 0-21.38zm66.19 58.74c7.1.03 14.21-.14 21.31.01.03 15.99.01 31.97.01 47.96 15.99-.05 31.98.07 47.97-.04.18-11.03-.21-22.06.18-33.07 7.07.12 14.13-.03 21.19.08l.02 33.04c18.5-.05 37 .05 55.5-.05-.11 17.37.01 34.74-.05 52.11-.06 8.01.52 16.16-1.34 24.04-3.2 15.12-13.29 28.62-26.89 35.96-7 3.93-14.98 5.87-22.97 6.31-.01 28.45.04 56.9-.02 85.35-32.69.01-65.39.01-98.08 0-.09-28.44-.03-56.88-.03-85.31-14.83-.29-29.39-6.96-39.25-18.05-8.74-9.54-13.83-22.3-14.09-35.24 0-21.71-.01-43.41.01-65.11 18.84-.04 37.68-.02 56.52-.01.01-16-.01-31.99.01-47.98M176 325.36c.04 14.9-.06 29.8.06 44.7.74 16.11 14.72 29.98 30.75 31 .05-.53.17-1.59.23-2.12 32.61-.02 65.23-.07 97.85.02l.29 2.1c16.42-.36 31.08-14.58 31.8-31 .18-14.89.03-29.79.07-44.69-53.68-.08-107.36-.05-161.05-.01m51.18 159.95c18.49.04 36.98-.01 55.47.02 0-21.33 0-42.67.01-64-18.46-.04-36.92.1-55.37-.07-.24 21.34-.01 42.7-.11 64.05z" fill="#010101"/></svg>