<svg width="512pt" height="512pt" viewBox="0 0 512 512" xmlns="http://www.w3.org/2000/svg"><path d="M449.67 15.73c2.69-4.22 8.25-5.84 12.9-4.16 3.53 1.11 5.19 4.71 7.84 7.01 9.65 9.38 18.84 19.25 28.75 28.35 2.94 3.71 2.95 9.54.02 13.27-10.66 9.91-20.69 20.51-31.08 30.72 2.7 2.63 5.21 5.45 8.14 7.85 5.4 4.01 4.93 13.33-.74 16.92-9.84 9.42-19.29 19.24-28.98 28.81-102 101.98-203.96 204.01-305.98 305.96-3.33 2.73-5.04 7.38-9.42 8.72-33.49 13.13-66.97 26.27-100.46 39.41-3.12 1.16-6.21 2.9-9.64 2.73-4.94-.19-9.41-4.3-9.97-9.21-.56-3.45 1.16-6.64 2.35-9.76 13.38-33.98 26.65-68.02 40.05-101.99 1.17-3.27 4.51-4.74 6.81-7.06 98.11-98.14 196.24-196.26 294.38-294.37-2.5-7.37-8.83-13.42-16.55-14.89-7.12-1.54-14.86.87-19.91 6.09-34.86 34.86-69.67 69.77-104.55 104.61-2.62 2.5-4.99 5.75-8.73 6.56-5.05 1.35-10.73-1.78-12.32-6.74-1.39-3.86-.14-8.34 2.85-11.09L299.89 59.01c4.08-4.01 8.23-8.08 13.32-10.8 11.71-6.61 26.64-7.07 38.72-1.12 7.48 3.57 13.66 9.5 18.05 16.5 8.27-8.26 16.52-16.54 24.81-24.79 2-1.98 3.46-4.72 6.27-5.71 4.04-1.61 9.34-.94 12.17 2.6 2.52 3.04 5.38 5.74 8.21 8.47 9.35-9.54 19-18.78 28.23-28.43m-13.56 43.19c5.67 5.77 11.53 11.36 17.1 17.24 7.77-7.33 15.13-15.08 22.75-22.56-5.75-5.76-11.5-11.51-17.26-17.26-7.54 7.52-15.07 15.04-22.59 22.58m-30.75-1.25C296.5 166.54 187.64 275.39 78.78 384.25c16.39 16.45 32.83 32.85 49.25 49.26C236.9 324.66 345.77 215.79 454.62 106.92c-16.41-16.42-32.81-32.86-49.26-49.25M41.34 470.96c22.63-8.82 45.2-17.78 67.84-26.56-13.46-14.06-27.49-27.59-41.18-41.43-8.9 22.66-17.78 45.33-26.66 67.99z"/></svg>