<svg width="1024pt" height="1024pt" viewBox="0 0 1024 1024" xmlns="http://www.w3.org/2000/svg"><path d="M152.52 1.77c39.63-5.14 81.27 12.68 105 44.81 9.17 11.61 14.52 25.6 19.44 39.4 6.69 19.09 14.06 37.95 20.54 57.11 2.3 7.01-8.24 12.8-13.17 7.59-2.29-3.12-3.21-7-4.75-10.51-5.55-14.71-10.61-29.61-16.16-44.33-4.74-13.35-9.33-27.02-17.53-38.73-14.41-20.98-37.58-35.93-62.84-39.62-22.7-3.57-46.47 1.53-66.1 13.35-16.29 9.75-29.64 24.44-37.43 41.79-8.63 19.09-10.64 41.07-5.66 61.42 1.57 8.21 5.82 15.66 7.15 23.93.56 7.12-10.75 10.42-14.24 4.25-11.16-23.52-14.26-51.01-7.57-76.27 7.53-29.83 27.26-56.7 54.4-71.51 12.02-6.62 25.28-11.04 38.92-12.68zm417.37 113.21c10.51-3.73 23.12.77 29.23 10.03 1.79 2.73 2.74 5.9 3.86 8.95 9.48 26.16 19.17 52.25 28.44 78.49 2.61 6.37-5.69 12.3-11.32 9.45-1.87-.81-2.87-2.67-3.53-4.47-10.62-27.34-20.02-55.13-30.35-82.57-1.06-3.23-4.1-7.06-7.93-5.55-20.4 6.54-40.19 14.81-60.49 21.62 10.11 29.17 21.24 57.98 31.42 87.13 1.41 4.02-1.26 8.68-5.31 9.81-22.45 8.17-44.83 16.59-67.38 24.47-4.79 1.96-9.49-1.65-10.65-6.25-10.31-28.29-20.62-56.58-30.87-84.9-20.03 7.25-40.02 14.57-60.06 21.78-2.97 1.18-6.83 2.43-7.55 6-.12 2.1.61 4.14 1.17 6.13l73.48 201.74c1.04 3.16 4.06 7.02 7.81 5.22 66.97-23.63 133.34-48.96 200.28-72.66 3.32-1.29 6.91-2.29 9.67-4.63 2.14-2.94.18-6.65-.67-9.71-8.7-24.02-17.55-47.98-26.2-72.02-1.86-3.78-.05-8.55 3.58-10.5 4.53-2.67 10.22.52 11.52 5.31 8.42 22.69 16.44 45.54 24.95 68.2a82.31 82.31 0 0 1 3.78 14.07c20.57-7.59 41.17-15.11 61.8-22.56 4.77-1.7 9.45-3.83 14.46-4.76 11.3-1.91 23.37 5.17 27.27 15.93 11.14 30.63 22.27 61.25 33.42 91.88.84 2.42 1.99 4.78 2.36 7.36.27 4.44-3.6 8.76-8.14 8.58-3.72.32-6.53-2.87-7.64-6.09-12.19-32.82-23.7-65.9-36.16-98.63-1.13-4-6.11-4.52-9.42-3.11-35.68 13.07-71.52 25.71-106.98 39.39 14.54 39.84 29 79.7 43.54 119.53 1.03 3.16 2.74 6.66 1.33 9.98-1.55 3.67-5.78 4.7-9.13 6.04-21.34 7.47-42.38 15.77-63.8 23.01-4.15 1.63-8.64-1.5-9.87-5.48-11.99-33.03-24.11-66.02-36.05-99.07-3.05-7.88-5.42-16.12-8.83-23.78-36.3 12.75-72.33 26.31-108.56 39.29-3.28.92-4.93 4.84-3.83 7.95 35.91 98.96 72.01 197.86 107.96 296.82.97 2.92 3.03 5.27 5 7.58 32.73-10.98 65.03-23.18 97.45-35.01 68.72-24.89 137.36-50 206.06-74.93 3.28-.89 5.89-4.53 4.54-7.91-12.26-34.54-25.1-68.87-37.45-103.38-.86-2.71-2.5-5.51-1.61-8.42 1.16-4.17 5.86-7.02 10.08-5.69 3.54.84 5.01 4.59 6.2 7.64 10.54 29.11 21.13 58.21 31.74 87.3 2.71 7.66 6.04 15.18 7.22 23.3 10.09-3.63 20.1-7.49 30.25-10.94 16.25-5.29 35.78 4.81 40.68 21.22 4.26 15.65-4.88 33.88-20.25 39.36-19.72 7.21-39.43 14.41-59.16 21.58-3.19 1.14-7.16 2.12-10.01-.32-4.75-3.33-3.85-11.99 1.87-13.75 20.92-7.79 42-15.14 62.88-23.04 4.75-1.81 9.19-5.7 9.98-10.95 1.21-7.91-3.01-17.19-11.04-19.6-6.74-1.7-13.09 2.08-19.31 4.07-124.07 45.68-248.37 90.72-372.63 135.85-1.87.09-.3 1.69.24 2.26 7.12 7.38 12.94 15.93 17.73 24.97 89.12-32.34 178.13-65.01 267.32-97.18 6.01-2.93 12.95 4.36 10.32 10.29-1.57 3.98-6.05 5.16-9.69 6.44-87.46 31.8-174.91 63.61-262.33 95.49 5.78 21.28 3.43 44.66-6.62 64.29-7.65 15.05-19.53 27.69-33.47 37.1l403.56-.1c5.42.01 9.89 6.41 7.24 11.4-1.44 3.6-5.65 4.77-9.19 4.71-267.72-.06-535.44 0-803.16-.03-4.18.26-8.51-2.68-9.01-6.99-.84-4.31 2.84-8.51 7.03-9.01 101.99-.03 204-.07 305.99.01-12.66-8.43-23.51-19.65-31.12-32.84-10.46-18.01-14.53-39.74-10.68-60.26 5.38-30.99 27.83-58.22 57-69.82 18.57-7.52 39.69-8.9 58.93-3.07-7.78-21.02-15.44-42.09-23-63.19-1.89-3.65-1.94-8.51 1.54-11.22 4.16-3.9 11.26-1.28 12.76 3.99 9.19 24.58 17.85 49.37 27.04 73.96 1.09 2.81 2.96 6.71 6.61 6.18 7.44-1.67 14.37-5.03 21.56-7.53-4.27-7.61-6.95-15.94-9.88-24.12L439.49 456.67c-3.2-6.63-3.36-14.31-.97-21.22-4.61-3.65-9.61-7.49-11.61-13.27-24.55-67.49-49.15-134.97-73.67-202.47-3.14-8.24-.57-17.78 5.13-24.26 4.14-5.02 10.12-8.05 16.37-9.55 44.48-15.56 88.31-32.96 132.84-48.4 20.92-7.08 41.5-15.13 62.31-22.52m-119.76 61.14c9.58 26.07 19.01 52.2 28.55 78.29 17.65-5.71 34.79-12.89 52.41-18.71-8.84-26.45-18.95-52.44-28.32-78.69-17.65 6.09-35.12 12.67-52.64 19.11M580 392.69c14.23 38.58 28.15 77.28 42.25 115.9 17.68-5.73 34.93-12.66 52.45-18.83-13.65-38.9-27.86-77.6-42.23-116.23-17.33 6.81-34.94 12.89-52.47 19.16M463.5 767.66c-21.2 3.54-40.61 16.75-51.37 35.4-11.77 20.12-13.46 45.55-5.36 67.31 5.37 14.69 15.74 27.42 28.85 35.91 25.67 16.52 61.24 16.18 86.31-1.41 15.1-10.48 25.95-26.83 29.87-44.78 7-30.06-5.17-64.54-31.6-81.32-16.54-10.83-37.31-14.51-56.7-11.11zM303.28 182.2c7.04-2.73 12.64 5.53 12.16 11.82.15 6.57-9.31 10.12-13.53 5.12-4.32-4.55-5.83-14.37 1.37-16.94zm17.06 49.22c4.03-2.38 9.39.05 11.05 4.21 48.57 133.46 97.13 266.93 145.72 400.39.59 1.96 1.32 3.96 1.22 6.05-.65 5.02-6.9 8.51-11.43 6.08-3.28-1.62-4.31-5.39-5.56-8.52-48.26-132.69-96.55-265.38-144.89-398.05-1.35-3.72.18-8.47 3.89-10.16zm500.87 234.77c2.71-1.42 6.1-.65 8.33 1.33 2.79 2.31 3.9 6 4.38 9.46.41 5.65-6.46 10.43-11.53 7.62-6.15-3.6-8.69-14.9-1.18-18.41zM469.33 805.46c21.98-5.83 45.51 13.21 46.36 35.49.85 20.41-17.38 39.17-37.68 39.53-19.21-.03-36.62-16.47-38.23-35.53-1.31-18 12.39-35.05 29.55-39.49m1.82 15.72c-9.16 1.8-15.11 10.95-15.47 19.89-.59 7.83 2.93 16.22 9.9 20.22 7.84 4.57 18.37 4.21 25.83-.95 10.96-8.13 11.26-26.73.66-35.28-5.77-4.71-13.85-5.57-20.92-3.88z"/></svg>