<svg width="1024pt" height="1024pt" viewBox="0 0 1024 1024" xmlns="http://www.w3.org/2000/svg"><path d="M28.34 43.21c9.02-3.94 19.07-3.24 28.66-3.24 238.03.01 476.05 0 714.07 0 5.91-.64 11.02 5.92 8.25 11.4-2.62 5.29-9.37 4.72-14.33 4.67-236.66-.08-473.33.02-709.99-.04-9.21-.07-19.28-.76-27.29 4.68-8.13 5.11-11.75 15-11.7 24.27-.03 25.36.03 50.72.02 76.09.14 3.86-.66 8.58-4.67 10.27-4.2 2.21-8.25-1.09-11.36-3.63V79.54c2.46-15.88 13.36-30.3 28.34-36.33zm785.95-.91c2.53-2.58 6.4-2.22 9.71-2.35 48.33.08 96.67-.05 145 .04 8.2.04 16.66-.55 24.5 2.36 16.01 5.51 27.97 20.54 30.5 37.19v654.91c-2.65 17.7-16.09 33.32-33.4 38.09-7.69 2.16-15.73 1.31-23.6 1.45-37.99-.11-75.99.36-113.98-.24-8.56.22-9.27-14.65-.88-15.44 12.27-.58 24.58-.24 36.86-.37 30.02.05 60.03.03 90.05.06 6.01-.17 12.23-1.24 17.3-4.66 7.58-5.05 11.84-14.31 11.62-23.31.02-42.67 0-85.34 0-128-249.67-.04-499.35-.02-749.02-.01-3.82.02-8.64-.62-10.3-4.64-2.84-5.01 1.75-11.62 7.29-11.44 250.67.08 501.35.01 752.02.02-.09-167.33.22-334.66-.16-502 .06-5.23-1.09-10.58-3.59-15.19-4.43-6.68-11.77-11.92-19.95-12.35-6.4-.59-12.84-.42-19.26-.43-42.67.03-85.34.03-128.01.01-6.28-.04-12.61.55-18.85-.35-5.93-.76-8.42-9.57-3.85-13.35zM0 209.25c2.24-2.68 4.99-6.04 8.94-5.24 9.43 1.26 10.03 17.55.88 19.79-3.94 1.22-6.97-2.03-9.82-4.16v-10.39zm432.29 35.1c3.13-1.27 6.74 0 9.04 2.31 49.49 49.51 98.99 99.01 148.49 148.51 2.02 2.3 4.86 4.57 4.9 7.9.53 5.62-6.35 10.21-11.33 7.53-3.31-1.9-5.77-4.9-8.47-7.52-47.31-47.36-94.67-94.66-141.99-142.02-2.25-2.41-5.45-4.62-5.68-8.22-.65-3.61 1.73-7.18 5.04-8.49zM5.41 256.45c3.96-1.67 9.11.81 10.02 5.08 1.09 4.74.49 9.65.61 14.47-.05 103.31-.09 206.62.03 309.93 61.97.1 123.95 0 185.92.04 3.72.17 8.1-.82 11.15 1.9 3.87 2.84 3.89 9.51-.11 12.23-2.28 1.7-5.24 1.91-7.99 1.97-63-.13-126.01-.03-189.02-.05-.05 42 .04 84-.05 126-.12 8.2 2.11 16.96 8.33 22.68 5.67 5.61 13.96 7.32 21.68 7.25 235.35.16 470.71-.22 706.06.19 2.22.11 4.7-.2 6.66 1.1 4.2 3.08 4.15 10.36-.08 13.41-1.57 1.22-3.68 1.1-5.55 1.23-37.96.37-75.93-.05-113.88.19 12.01 33.68 23.7 67.48 35.5 101.24.5.99.8 2.86 2.35 2.61 12.99.12 25.99-.02 38.98.07 14-.42 26.81 10.85 29.58 24.32 1.22 6-.77 11.94-2.55 17.61l119.01.09c4.87-.09 9.16 5.04 7.85 9.83-.74 3.66-4.3 6.02-7.91 6.06-10 .28-20 .01-30 .11H217.94c-3.57.08-7.77-1.05-9.29-4.63-2.31-4.6 1.06-11.08 6.36-11.17 21.93-.67 43.87.02 65.81-.27-1.48-5.51-3.51-11.14-2.57-16.92 2.35-13.52 14.83-24.85 28.7-25.01 13.69-.22 27.38 0 41.07.03 5.02-11.68 7.77-24.27 13.22-35.79 3.23-6.4 14.26-3.05 14.43 3.73-1.81 11.06-7.37 21.09-10.01 31.92 97.7.13 195.41.07 293.12.03-7.51-20.55-14.52-41.29-21.77-61.93-5.15-13.95-9.5-28.2-15.02-42-73.34-.01-146.68.08-220.02-.05-4.87 11.6-8.08 23.84-12.46 35.63-1.14 2.98-3.06 6.26-6.55 6.71-5.2 1.32-10.68-4.02-9.23-9.26 2.76-11.2 7.73-21.75 10.58-32.91-112.76-.26-225.53-.04-338.3-.11C23.49 775.06 3.1 756.43 0 734.48V261.1c1.61-1.75 3.16-3.71 5.41-4.65m297 638.14c-7.52 1.7-9.88 11.05-7.63 17.58 1.3 5.31 7.05 8.05 12.17 7.79 135.35.03 270.7 0 406.05.02 3.77-.16 7.8.02 11.26-1.74 7.58-4.62 7.56-16.92.75-22.19-3.44-2.66-7.99-1.89-12.01-1.99-133.67-.13-267.34.02-401-.07-3.2.07-6.44-.02-9.59.6zm212.86-634.45c3.75-1.65 7.93.24 10.54 3.05 21.88 22.12 43.84 44.17 66 66 1.73 2.01 3.99 4.02 4.15 6.85.58 4.73-3.97 9.61-8.81 8.74-4.02-.48-6.52-4.09-9.29-6.64-21.56-21.78-43.35-43.33-64.95-65.06-3.75-3.72-2.52-10.81 2.36-12.94zm-82.96 52.22c4.22-1.92 8.36 1.26 11.12 4.21 10.39 10.95 21.62 21.1 31.8 32.26 3.87 3.93 1.5 11.18-3.59 12.73-2.35.53-5 .3-6.91-1.28-4.14-3.16-7.45-7.22-11.16-10.85-6.78-6.88-13.96-13.37-20.5-20.49-2.28-2.68-6.24-4.9-5.84-8.92-.27-3.33 2.03-6.49 5.08-7.66zm73.1 334.27c18.58-4.04 37.93 10.95 40.3 29.48 1.79 13.82-6.58 27.57-18.66 33.96-6.66 3.53-14.6 4.88-21.96 3.03-13.69-3.1-24.65-15.22-26.92-28.99-2.24-17.08 10.9-33.56 27.24-37.48m.98 15.96c-13.07 2.88-16.49 21.67-7.49 30.52 7.02 6.53 19.23 6.73 26.18-.02 6.5-6.6 6.4-17.91.99-25.11-4.54-5.78-12.9-6.92-19.68-5.39zm292.93 95.75c4.05-1.31 9.06-.94 12.33 2.03 3.4 2.96 3.12 9.12-.64 11.68-4.87 3.64-13.29 3.05-16.34-2.66-2.29-4.13.25-9.67 4.65-11.05z"/></svg>