<svg width="640" height="178pt" viewBox="0 0 480 178" xmlns="http://www.w3.org/2000/svg"><path d="M138.2 0h5.62c11.45 1.06 21.11 11.47 21.15 22.99.54 9.58-5.65 18.93-14.42 22.62-3.49 1.52-7.39 1.63-10.93 2.98-8.04 3.1-13.59 11.83-12.56 20.45.59 5.61.74 11.27.15 16.89-.94 10.67 5.17 21.38 14.69 26.23 5.26 2.91 11.59 2.41 16.98 4.98 12.55 5.34 20.74 19.34 18.93 32.92-1.16 10.14-7.54 19.52-16.55 24.31-2.77 1.51-5.81 2.4-8.71 3.63h-11.13c-11.21-1.67-21.24-9.54-25.26-20.17-1.97-4.74-1.74-10.1-4.03-14.72-3.38-7.37-10.26-13-18.13-14.92-5.28-1.27-10.72-.03-16.06-.55-8.68-.77-17.18-3.98-24.02-9.41-4.69-4.53-12.26-4.1-17.44-.67-3.92 2.46-5.04 7.43-8.63 10.23-5.08 4.44-12.88 5.35-18.81 2.09-4.73-2.32-7.8-7.05-9.04-12.06v-6.05c1.39-5.68 5.26-10.9 10.91-12.86 5.88-2.46 12.45 1.12 18.26-1.69 3.89-1.36 8.08-4.5 7.31-9.18-1.59-13.18 3.12-26.73 11.92-36.58 2.11-2.37 4.94-5.49 3.15-8.87-1.61-5.65-8.85-5.95-11.15-11.08-2.7-4.65-1.21-10.98 2.98-14.25 4.95-4.17 13.3-2.9 16.74 2.63 2.32 2.89 1.64 6.72 1.9 10.14.19 3.64 3.21 7.29 7.03 7.24 6.31.32 12.58-1.39 18.89-.6 4.97.29 10.05 1.92 14.96.37 6.35-1.89 11.94-6.9 13.75-13.38.82-3.2 1.18-6.54 2.55-9.57C122.53 6.51 129.96.95 138.2 0M74.17 52.15c-8.63 1.98-16.2 7.97-20.2 15.86-4 7.91-4.32 17.61-.82 25.75 4.53 10.97 16 18.58 27.88 18.42 12.36.28 24.25-7.98 28.53-19.54 4.43-11.57 1.12-25.72-8.41-33.77-7.25-6.39-17.57-8.91-26.98-6.72zm392.34-15.73c3.57-4.83 11.59-3.14 13.49 2.41v4.67c-1.49 3.48-5.13 6.37-9.08 5.33-5.36-1.05-8.1-8.21-4.41-12.41m5.03-.77c-4.36.63-5.98 6.73-2.86 9.69 2.28 2.67 7.03 2.02 8.51-1.17 2.59-3.74-1.15-9.57-5.65-8.52zm-2.11 4.3c-.52-4.25 6.02-3.38 6.89-.16-.36.39-1.08 1.18-1.43 1.58.45 1.32.89 2.66 1.3 4.01-2.03-.38-2.94-2.32-4.46-3.45l-.21 3.34c-3.09.17-1.77-3.5-2.09-5.32m1.67-.05c.07 1.76 2.92 1.63 3.12-.01-.04-1.71-3.08-1.7-3.12.01zm-55.54 8.05c-.18-2.42 1.88-4.9 4.35-4.87 3.02.02 6.92-.88 8.88 2.11 1.86 2.99.64 6.77.94 10.08-4.51.85-8.36 3.74-10.84 7.54 2.65-1.76 5.26-3.88 8.55-4.25 4.53-.43 9.1-.08 13.66-.2.02 2.3.06 4.59.06 6.88-3.96-.04-8.64-.7-11.26 3.02-.11 8.82-.52 17.73.17 26.51 2.21 5.02 8.38 3.14 12.65 3.55l-.05 6.76c-4.55-.04-9.11.1-13.66-.04-7.36.07-13.55-6.85-13.46-14.07-.01-14.34-.03-28.68.01-43.02zm34.87-4.52c2.12-.67 4.45-.37 6.66-.36 2.58-.11 4.97 2.32 4.81 4.89.03 11.37 0 22.74.02 34.12.27 2.74-2.19 5.31-4.94 5.21-2.59-.05-5.86.71-7.74-1.55-1.65-1.43-1.27-3.75-1.35-5.69.07-10.69-.02-21.4.04-32.09-.23-1.89.85-3.65 2.5-4.53zM151.1 70.97c.46-6.92 7-12.69 13.9-12.59 10.69 0 21.37-.05 32.06.03 7.03.16 13.31 6.47 13.33 13.52.05 11.05 0 22.1.01 33.14-4.71 0-9.43.11-14.13-.12.07-11.3.05-22.6.03-33.9.3-3-2.39-5.73-5.35-5.7-6.67-.1-13.34-.05-20.01-.02-3.11-.19-5.96 2.51-5.96 5.62-.15 6.03.04 12.07-.06 18.11.08 2.29-.39 4.9 1.22 6.81 1.28 1.88 3.67 2.47 5.83 2.39 6.28.04 12.56-.07 18.84.04-.01 2.25 0 4.5-.02 6.76-8.6.03-17.2.05-25.79.01-7.45.33-14.38-6.63-13.95-14.08.04-6.67-.07-13.35.05-20.02zm67.71-7.98c.07-3.61 4.12-5.16 7.21-4.67 3.02-.46 6.59 1.36 6.81 4.65.14 10.35 0 20.7.04 31.05-.54 3.71 3.62 7.14 7.16 5.88 2.59-.73 4.59-2.7 6.06-4.87 8.03-11.57 16.12-23.1 24.17-34.66.72-.8 1.27-2.24 2.62-1.97 4.36-.1 8.73-.02 13.09.02-8.91 12.62-17.58 25.4-26.45 38.05-3.03 4-7.1 8-12.4 8.31-5.03.4-10.08.37-15.11.25-7.28.02-13.52-6.87-13.26-14.06.03-9.33-.1-18.66.06-27.98zm67.86 2.57c2.46-4.33 7.24-7.23 12.25-7.18 10.39-.02 20.78-.01 31.18 0 7.34-.24 14.22 6.26 14.13 13.66.06 11.01.01 22.03.01 33.04-4.68.01-9.36.03-14.04-.03-.02-11.37.05-22.73-.02-34.09.19-2.92-2.38-5.59-5.28-5.6-6.63-.13-13.28-.04-19.92-.04-3.13-.22-6.33 2.35-6.07 5.64-.08 7-.02 14.01-.03 21.02-.44 3.4 2.75 6.64 6.16 6.27 6.55.07 13.11-.08 19.66.06-.01 2.24.01 4.49-.01 6.73-8.9.04-17.8.12-26.7-.02-5.92-.03-11.08-4.7-12.7-10.22-.9-4.87-.25-9.87-.43-14.79.21-4.82-.9-10.13 1.81-14.45zm67.49-2.45c2.9-3.43 7.5-4.76 11.87-4.68 10.02.12 20.04-.21 30.06.01 7.2.33 13.26 7.03 12.98 14.22-4.63.05-9.26.02-13.89.03.24-3.31-1.49-7.16-5.21-7.34-6.65-.16-13.32-.18-19.96.01-6.89.66-6.89 12.72.05 13.27 8.64.34 17.3-.08 25.94.18 2.95.09 5.96.91 8.24 2.86 5.91 4.53 6.57 14.53.97 19.57-2.64 2.71-6.46 3.92-10.18 3.83-10.34 0-20.69.09-31.02-.05-7.26-.08-13.29-6.97-13.12-14.1 4.62-.01 9.24-.01 13.86 0-.09 3.21 1.65 7.1 5.26 7.34 5.66.26 11.34.01 17.01.12 2.04-.08 4.45.23 6-1.43 3.9-3.17 2.26-10.94-3.05-11.36-8.64-.3-17.29.04-25.93-.14-4.51-.08-9.17-2.34-11.26-6.47-2.6-4.92-2.65-11.68 1.38-15.87zM61.84 81.02c.09-9.29 7.97-17.63 17.2-18.43 10.65-1.44 21.09 7.67 21.25 18.39-.07 4.67 1.05 10.19-2.45 13.97-1.79 2.26-4.66 3.02-7.36 3.51-.34-6.13.16-12.27-.24-18.39-.74-6.43-9.05-9.82-14.28-6.22-5.01 2.92-5.78 10.73-1.47 14.61 3.2 3.5 8.25 2.53 12.48 2.83-.59 3.75-2.88 7.51-6.77 8.46-10.47 2.14-19.05-9.01-18.36-18.73zm388.67 10.64c2.56-.86 5.46-.67 8.1-.23 4.26 1.61 3.62 6.95 3 10.52-1.5 3.91-6.33 3.26-9.67 3.03-2.4-.15-4.14-2.59-4.03-4.88-.11-2.94-.53-6.85 2.6-8.44zm-120.99 34.98c.4-2.19 2.6-2.75 4.51-2.82.28 1.41.87 2.85.53 4.31-.89 5.33-2.47 10.51-3.73 15.75 2.92-2.82 5.84-6.44 10.17-6.87 2.41-.37 4.31 1.83 4.83 3.96.81 5.61-2.16 11.01-6.11 14.77-2.53 2.49-6.03 4.41-9.67 4-4.17-.92-5.65-6.13-4.78-9.86 1.3-7.76 2.31-15.6 4.25-23.24m.08 26.53c-.71 2.06 2.03 2.42 3.37 1.84 5.02-2.35 8.27-7.91 8.2-13.41-5.73.97-9.79 6.38-11.57 11.57zm63.55-26.98c2.43-2.53 7.28-2.93 9.32.29 1.91 3.07.17 7.03-2.55 8.97-1.8-1.87-1.11-4.53-1.68-6.83-1.78-.53-2.57 1.35-3.1 2.64-1.07 2.62-1.57 5.41-2.25 8.14 2.64.64 6.87-1.32 8.45 1.46-1.15 3.34-5.69 2.66-8.51 3.09-1.02 5.29-1.46 10.74-.89 16.11-1.02.6-2.04 1.21-3.04 1.83-.91-.9-2.67-1.41-2.72-2.88-.15-4.89 1.23-9.67 1.41-14.55-3.01-1.77-.53-4.03.76-5.92 1.17-4.22 1.34-9.19 4.8-12.35zm-36.56 11.36c2.61-1.41 6.73-1.5 8.33 1.44 1.92 2.91 0 6.56-2.14 8.76-2.64 2.97-6.51 4.23-10.16 5.44.91 1.02 1.63 2.72 3.28 2.64 3.76.17 6.42-2.73 9.12-4.86 3.51-.39 1.49 3.81-.06 5.04-3.82 4.69-13.25 6.85-16.31.31-2.45-7.11 1.7-15.11 7.94-18.77m-3.31 11.24c2.69-.84 5.34-2.11 7.08-4.41 1.08-.87 1.33-3.42-.5-3.61-3.48 1.29-5.23 4.83-6.58 8.02zm72.42-7.2c2.19-2.86 5.56-5.35 9.35-4.96 3.34.28 5.53 4.31 4 7.29-1.97 5.27-7.5 7.78-12.54 9.23.75 1.29 1.71 2.93 3.49 2.68 3.53 0 6.05-2.65 8.64-4.66 1.41-1.03 2.9.9 1.93 2.15-2.47 4.75-8.14 8.08-13.54 6.85-2.89-.58-5-3.39-5.2-6.26-.62-4.45 1.06-8.91 3.87-12.32m1.31 7.19c3-.86 6.01-2.39 7.67-5.16.66-1.14.41-2.11-.74-2.9-3.68 1.12-5.5 4.81-6.93 8.06zm19.73-6.94c2.26-2.81 5.4-5.53 9.26-5.24 3.32.08 5.67 3.9 4.4 6.92-1.85 5.51-7.58 8.2-12.79 9.66 1.65 3.87 6.44 2.8 9.03.57 1.65-1.05 2.93-3.54 5.21-2.55.7 3.15-2.4 5.43-4.61 7.11-3.99 2.92-11.38 3.32-13.54-2-1.82-4.89-.19-10.53 3.04-14.47m1.61 6.91c2.66-.79 5.27-2.08 7-4.34 1.11-.83 1.42-3.55-.46-3.61-3.46 1.23-5.25 4.76-6.54 7.95zm-45.04-8.74c.53-2.49 4.48-3.15 5.54-.64-.17 2.95-1.87 5.61-1.77 8.61 2.79-4.04 5.19-10.13 10.89-10.37 3.45-.18 5.36 3.46 4.02 6.42-1.9.01-3.6-.73-5.13-1.81-4.21 3.43-7.59 8.17-8.47 13.62-.45 1.56-.31 3.8-2.16 4.47-1.95 1.41-3.88-1.25-3.9-3.11-.45-5.73-.02-11.53.98-17.19z" fill="#bfbfbf"/></svg>