<svg width="640" height="59pt" viewBox="0 0 480 59" xmlns="http://www.w3.org/2000/svg"><path d="M438.88 4.27C450.91 2.35 463.03.22 475.27.73 425.96 5.62 376.42 23.88 340.58 59H325.4l-1.71-2.07c5.9-5.59 12.16-10.81 18.85-15.43 28.54-19.91 62.22-31.43 96.34-37.23zM2.55 26.62c1.22-4.5 6.56-4.98 10.44-5.04 10.31-.05 20.64-.14 30.95.04 4.25-.06 8.47 1.73 10.56 5.59-2.45 1.85-5.65.99-8.48 1.15-11.03.06-22.07-.17-33.09.1-1.22 2.33-.35 5.19-.17 7.7 10.77-.05 21.54-.07 32.31 0 3.68-.01 8.45.92 9.7 4.95.76 4.16.69 8.5.07 12.67-.71 3.46-4.43 4.72-7.49 5.22H9.49c-4.16.08-8.74-1.84-9.48-6.4 1.62-.59 3.32-.88 5.04-.8 10.31.09 20.61.01 30.92.04 3.02 0 6.09.28 9.04-.53-.13-2.49-.16-4.98-.15-7.47-11.23-.53-22.49.07-33.72-.3-3.45-.17-7.75-1.29-8.63-5.17-.64-3.85-.66-7.9.04-11.75zm67.52-3.83c1.23-.57 2.5-1.23 3.91-1.12l37.98.04c3.93.1 9.27.17 11.03 4.48.83 4.45.78 9.19.03 13.65-1.3 3.69-5.62 4.43-9.03 4.6-10.74.25-21.5-.14-32.25.19-.17 4.79-.05 9.58-.1 14.37H70.2c-.16-12.07.1-24.14-.13-36.21m11.71 5.88c-.16 2.84-.14 5.68-.2 8.52 1.07.51 2.19.73 3.38.68 6.01-.05 12.03-.03 18.04-.02 3.03-.01 6.17.32 9.02-.92-.3-2.57 1.32-6.19-1.1-7.95-2.57-.7-5.27-.41-7.89-.47-7.09.1-14.18-.18-21.25.16zm61.9.08c1.97-2.59 4.08-5.07 6.18-7.55 9.35 12.68 18.96 25.17 28.38 37.8h-13.07c-2.46-2.6-3.77-6.69-7.37-7.95-10.64-.4-21.31.1-31.95-.23 1.87-2.3 3.75-4.59 5.63-6.88 7.3-.06 14.6-.02 21.9-.01-2.07-5.65-6.47-10.14-9.7-15.18zm47.7-2.14c1.51-4.85 7.43-4.79 11.57-4.9 11.67.16 23.38-.44 35.02.35 3.72.07 6.24 3.08 7.23 6.41-14.14.55-28.31-.09-42.46.32-.04 7.41-.17 14.82.02 22.21.28.24.82.71 1.09.95 13.61.29 27.24-.03 40.86.14-.3 4.32-4.14 7.04-8.28 6.91h-37.44c-3.24-.15-6.97-1.67-7.72-5.17-.64-4.25-.25-8.57-.34-12.85.16-4.78-.44-9.64.45-14.37zm68.73-4.87c17.03-.07 34.06-.04 51.09-.01.01 2.38.02 4.77 0 7.15-17.03.02-34.06.06-51.08-.01-.02-2.38-.01-4.76-.01-7.13zm66.03.08c3.89-.69 7.91-.09 11.85-.3 2.15.17 4.66-.6 6.41 1.03 3.75 2.79 7.52 5.58 11.22 8.45-3.96 1.92-7.89 3.92-11.69 6.15-6.3-4.66-12.66-9.22-18.93-13.92l1.14-1.41zm-66.03 12.33c11.5-.07 22.99-.03 34.48-.02.01 2.2.02 4.4.01 6.6-7.58.18-15.17-.25-22.73.25-.03 3.71-.03 7.43-.01 11.14 12.97.49 25.97.01 38.95.25l-.02 6.63h-50.63c-.09-8.28-.02-16.57-.05-24.85zm97.62 12.87c3.34-2.5 6.6-5.1 9.92-7.62 7.55 5.43 15.02 10.97 22.58 16.38 1.26.66 1.87 1.79 1.62 3.22H374.5c-5.65-3.9-11.09-8.1-16.77-11.98z" fill="#bfbfbf"/></svg>