<svg width="640" height="127pt" viewBox="0 0 480 127" xmlns="http://www.w3.org/2000/svg"><path d="M19.43 9.07c.31-2.83 2.27-6.14 5.49-5.94 13.69-.06 27.39-.05 41.09 0 9.25.42 19.63 2.52 25.71 10.16 4.84 5.44 5.46 13.38 4.26 20.27 6.6 3.55 10.53 11.07 10.07 18.49-.24 11.35-4.28 23.48-13.52 30.66-6.02 4.86-13.96 6.65-21.52 7.19-3.22.38-6.93-.78-9.75 1.26-1.66 1.54-1.61 3.98-2.05 6.05-.73 6.98-2.01 13.88-3.16 20.79-.26 2.13-1.37 5.02-3.94 4.95-6.74.12-13.49.02-20.23.05-1.5.21-2.97-.43-3.26-2.05.2-3.66 1.09-7.25 1.65-10.87-7.46-.06-14.92.08-22.38-.04-2.21.29-4.42-1.77-3.8-4.03C6.15 91.92 8.95 77.93 10.7 63.8c3.19-18.21 5.73-36.5 8.73-54.73zm138.95 26.31c5.8-.98 11.76-.07 17.62-.37 7.83.22 16.17-1.04 23.44 2.6 6.73 2.7 9.9 10.6 9.14 17.47-.85 8.44-3.88 17.41-11.05 22.55-7.62 5.64-17.62 5.18-26.63 5.17-1.98-.4-3.44 1.28-3.64 3.11-1.06 5.64-1.79 11.35-2.81 17-.18 2.15-2.26 3.84-4.4 3.66-3.74.04-7.48.09-11.22-.03-1.75.16-3.29-1.59-2.56-3.31 2.55-14.65 4.42-29.4 7-44.04.96-5.71 1.94-11.43 2.57-17.19.45-2.28.31-5.21 2.54-6.62M173 49.82c-1.22 6.14-1.99 12.35-3.2 18.48 5.12-.23 10.87.86 15.37-2.21 3.66-3.32 5.2-9.42 2.67-13.83-3.91-3.69-9.94-2.54-14.84-2.44zm168.94-14.77c9.69-.16 19.39-.08 29.08-.06 6.9.05 14.69 2.24 18.56 8.41 2.95 4.29 2.78 9.77 2.17 14.71-1.31 7.98-5 16.16-12.14 20.5-7.6 4.76-16.97 4.19-25.56 4.26-2.47-.31-3.56 2.24-3.75 4.28-.64 5.62-1.45 11.23-2.49 16.8-.15 1.45-1.52 2.61-2.95 2.65-3.98.11-7.96.05-11.93.04-1.3.1-2.8-.45-3.27-1.76 1.92-15.67 4.8-31.22 7.27-46.82.81-6.44 1.76-12.88 2.97-19.26.18-1.48 1.22-2.58 2.04-3.75m14.39 15.16c-.96 6.01-1.79 12.05-2.96 18.03 4.73-.2 9.84.7 14.21-1.55 4.56-2.63 5.72-8.69 4.31-13.41-1.46-2.85-5.01-3.4-7.88-3.56-2.54 0-5.27-.55-7.68.49zm104.98-14.85c5.21-.61 10.72-.9 15.87.33-1.47 14.56-4.87 28.86-6.55 43.4-1.27 8.03-2.65 16.04-3.93 24.07-.21 1.86-1.93 3.43-3.8 3.43-3.7.09-7.43.22-11.11-.13-3.13-1.21-.99-5.06-.88-7.49 2.69-19.08 6.27-38.02 8.84-57.11.39-2.19.51-4.49 1.56-6.5zm-60.33 26.76c7.17-4.95 16.75-6.14 24.87-2.97 2.24.85 3.75 2.8 5.4 4.43.31-1.53.62-3.06.96-4.58 5.14-.39 10.57-1.02 15.59.2l.76 1.71c-2.05 14.07-4.24 28.13-6.67 42.14-.09 2.06-1.9 3.69-3.95 3.55-3.84.05-7.7.24-11.52-.14-2.49-.88-1.1-3.77-1.06-5.62-7.99 8.36-23.13 9.68-31.67 1.48-10.82-11.84-5.41-31.96 7.29-40.2m13.47 9.48c-6.92 2.19-11.68 10.65-8.66 17.52 2.35 5.38 9.46 6.05 14.4 4.35 7.31-2.11 10.99-11.44 7.63-18.12-2.82-4.29-8.74-5.47-13.37-3.75zM204.76 91.46c-2.57-14.5 7.5-30.27 22.07-33.36 7.22-1.47 16.21-.85 21.04 5.48.27-1.7-.03-4.42 2.27-4.79 4.29-.3 8.62-.23 12.92-.04 2.73.07 1.84 3.29 1.75 5.05-1.85 11.74-3.95 23.45-5.73 35.21-.31 2.74-.07 6.71-3.57 7.43-4.22.19-8.54.45-12.73-.14-2.56-.87-.98-3.67-.68-5.47-6.89 6.72-17.92 8.94-26.75 4.96-5.85-2.31-9.3-8.44-10.59-14.33m27.47-20.27c-8.49 1.61-13.32 12.02-9.11 19.54 2.97 3.66 8.42 4.25 12.72 3.04 7.31-1.68 12.12-10.68 9-17.61-2.31-4.46-7.91-6.25-12.61-4.97zm38.85-9.27c-.77-1.42.32-3.12 1.89-3.14 4.33-.21 8.69-.25 13.02.04 1.7.06 2.75 1.54 3.04 3.07 2.18 7.92 5.12 15.61 6.9 23.62 6.18-8.73 11.68-17.99 18.33-26.37 4.47-.99 9.19-.34 13.76-.43 1.49-.23 3.75 1.63 2.62 3.09-14.17 20.38-28.3 40.79-42.46 61.17-5.33.01-10.66.05-15.99-.03l-1.23-1.97c4.56-6.43 9.15-12.84 13.67-19.29-4.43-13.28-8.99-26.52-13.55-39.76z" fill="#bfbfbf"/></svg>