<svg width="640" height="100pt" viewBox="0 0 480 100" xmlns="http://www.w3.org/2000/svg"><path d="M.41 0h20.43c.11 19.33 0 38.66.05 57.99.14 6.92 1.24 14.61 6.57 19.56 5.75 5.3 14.02 6.1 21.49 6.09 7.14-.11 15.03-1.16 20.37-6.38 5.03-4.98 6.19-12.45 6.21-19.23.01-17.68.03-35.36-.02-53.04-.03-1.73.08-3.53 1.14-4.99h19.76c.04 19.68 0 39.36.02 59.05-.03 10.18-2.52 21.02-9.81 28.53-7.66 8.03-18.96 11.2-29.71 12.09-11.08.63-22.54.56-33.1-3.28-7.31-2.58-14.02-7.36-18.02-14.1-3.75-6-5.15-13.12-5.78-20.07L0 67.38V.53L.41 0zm273.87 0h77.18c-2.02 4.84-3.65 9.86-5.97 14.57-.63 1.89-2.9 1.45-4.43 1.59-18.1-.09-36.19.05-54.28-.08-.01 8.22-.01 16.44 0 24.67 16.01-.07 32.03-.07 48.04 0-2.21 5.08-3.4 10.9-6.79 15.3-10.89.59-21.83-.18-32.73.37-3.79.15-8.09 2.44-8.34 6.63-.46 6.42-.05 12.88-.19 19.31 21.56.06 43.13-.21 64.67.14-1.74 4.2-3.37 8.43-5.1 12.63-.68 1.46-1.23 3.53-3.3 3.19-22.67.14-45.35-.03-68.02.08-2.56-.08-5.56.09-7.49-1.92-1.19-1.16-1.09-2.95-1.19-4.47-.01-28.03.02-56.05-.02-84.08.07-1.8-.01-3.83 1.22-5.3C269.15.6 271.92.39 274.28 0zM136.83 3.11c2.04-2.97 6-2.96 9.22-3.01 14.99.05 29.98-.06 44.97.06 8.63.26 18.02 1.11 25.06 6.65 7.13 5.65 8.46 15.72 6.99 24.17-.97 6.47-4.9 12.37-10.67 15.51 7.26 1.97 12.91 8.06 14.7 15.31 2.36 9.16 1.71 20.11-4.92 27.41-6.34 6.9-16.18 8.84-25.16 9.16l-53.05.03c-2.3-.02-4.91-.04-6.66-1.76-1.49-1.44-1.24-3.69-1.38-5.58-.01-26.68.02-53.37-.02-80.05.11-2.63-.29-5.47.92-7.9m19.73 37.95c11.81-.39 23.63.05 35.44-.23 4.49-.04 9.49-2.45 10.4-7.24.66-4.66 1.19-10.14-1.87-14.11-2.86-3.25-7.53-3.54-11.56-3.66-10.84-.01-21.69.03-32.53-.02.06 8.42-.15 16.84.12 25.26m1.88 17.51c-1.71 1.64-1.99 4.16-2 6.41-.02 5.88-.01 11.76.02 17.64 12.53-.17 25.06-.01 37.58-.09 3.64-.12 7.6-.6 10.42-3.13 2.54-2.37 3.08-6.06 3.16-9.37.04-3.94-.3-8.48-3.48-11.25-3.06-2.61-7.31-2.92-11.15-3.02h-24.98c-3.31.15-7.04.38-9.57 2.81zM388.15 2.2C390.22.22 393.3.22 396 .11c13.98-.01 27.97 0 41.96 0 7.39.04 14.93.37 22 2.73 7.36 2.21 13.76 7.89 15.93 15.4 2.47 8.66 2.42 18.29-.9 26.72-2.84 7.33-9.87 12.1-17.29 13.92 7.51 12.67 14.88 25.41 22.3 38.13v1.28c-6.65.09-13.31.16-19.96.04-1.9.23-2.62-1.67-3.46-2.96-6.4-11.51-12.78-23.03-19.24-34.51-7.51.22-15.05-.39-22.54.37-3.7.26-7.68 2.84-7.63 6.91-.24 10.07-.02 20.16-.09 30.23-6.35-.14-12.72.26-19.05-.16-1.95-.34-1.35-2.81-1.55-4.19.04-28.69.02-57.37.01-86.06.05-2 .09-4.28 1.66-5.76m18.93 13.62c.01 9.95-.03 19.89.02 29.84 12.42-.16 24.84.13 37.26-.14 4.83-.07 10.38-2.3 11.68-7.43 1.12-5.06 1.31-10.62-.34-15.59-1.9-5.14-7.89-6.56-12.79-6.62-11.94-.14-23.89-.01-35.83-.06z" fill="#bfbfbf"/></svg>