<svg width="640" height="100pt" viewBox="0 0 480 100" xmlns="http://www.w3.org/2000/svg"><path d="M.49 0h20.35c.11 19.35-.01 38.7.05 58.06.13 7.09 1.37 15.06 7.07 19.94 6.59 5.52 15.77 5.84 23.96 5.54 7.28-.36 15.42-2.49 19.62-8.98 3.38-5.15 4.01-11.52 4-17.53-.03-17.33.04-34.67-.04-52.01-.05-1.73.16-3.49 1.05-5.02H96.4c.06 17.99 0 35.98.03 53.97.41 11.54-1.12 24.24-9.31 33.08-8.71 9.57-22.23 12.39-34.63 12.95h-8.03c-12.01-.47-24.93-2.98-33.86-11.64C3.51 81.59.76 71.7 0 62.21V.62L.49 0zm273.17 0h77.78c-1.97 4.87-3.67 9.85-5.93 14.6-.72 1.84-2.94 1.47-4.51 1.56-18.07-.09-36.14.05-54.21-.08-.02 8.22-.03 16.45 0 24.67 16-.07 32-.06 48-.01-1.75 4.83-3.51 9.69-5.79 14.29-.71 1.59-2.65 1.08-4.01 1.24-9.57.03-19.13-.15-28.69.07-4.06-.01-9.02 2.07-9.34 6.69-.46 6.42-.06 12.88-.18 19.32l64.53-.02c-1.65 4.85-3.6 9.6-5.66 14.29-.5 2.16-3.01 1.63-4.67 1.79-22.66-.11-45.32.02-67.98-.07-3.15.25-6.97-1.69-6.61-5.31-.14-28.01.02-56.04-.08-84.05.11-2.14-.22-4.61 1.26-6.38 1.46-1.82 3.94-2.14 6.09-2.6zM137.97 1.89c2.52-2 5.97-1.69 8.99-1.8 15.01.08 30.01-.1 45.02.1 8.54.32 17.89 1.33 24.66 7.1 6.94 6 7.95 16.23 6.22 24.72-1.14 6.1-5.03 11.5-10.47 14.49 7.35 1.95 13.02 8.17 14.76 15.5 2.3 9.11 1.61 19.95-4.95 27.2-6.37 6.93-16.25 8.86-25.26 9.17l-52.95.03c-2.3-.02-4.9-.03-6.66-1.74-1.52-1.45-1.27-3.73-1.41-5.63.02-27.69 0-55.38.01-83.07.09-2.13.09-4.7 2.04-6.07M156.4 40.9c11.89-.03 23.78.12 35.66-.07 4.49-.05 9.47-2.5 10.34-7.29.64-4.27 1.02-9.04-1.11-12.97-2.29-3.88-7.24-4.6-11.34-4.72-11.12-.14-22.24.14-33.36-.14-.37 8.39-.01 16.8-.19 25.19m2.48 17.27c-2.05 1.6-2.46 4.38-2.44 6.81-.01 5.88-.03 11.76.03 17.64 12.82-.2 25.64.03 38.45-.12 4.43-.14 9.8-1.48 11.57-6.08 1.64-4.7 1.59-10.11-.19-14.77-1.93-4.32-7.01-5.66-11.34-5.82-8.66-.17-17.33-.01-26-.08-3.44.1-7.25.18-10.08 2.42zM388.17 2.18C390.24.21 393.32.22 396 .1l41.95.01c8.19.05 16.63.44 24.31 3.59 6.7 2.59 12.07 8.37 13.87 15.36 2.2 8.42 2.08 17.66-1.1 25.82-2.83 7.36-9.87 12.18-17.32 14 7.5 12.66 14.86 25.41 22.29 38.11v1.29c-7.21-.14-14.61.71-21.7-.39-7.49-12.06-13.81-24.86-21.06-37.08-6.42.19-12.84-.06-19.25.12-3.15.18-6.73.47-9.06 2.89-1.95 1.84-1.81 4.71-1.87 7.16.03 9.13.02 18.25.01 27.38-6.34-.11-12.7.26-19.03-.14-1.94-.41-1.39-2.81-1.57-4.23.05-28.66.03-57.31.02-85.97.04-2.03.08-4.34 1.68-5.84m18.91 13.64c.01 9.95-.04 19.89.03 29.84 12.41-.15 24.84.12 37.25-.14 4.89-.06 10.51-2.36 11.72-7.59 1.1-5.09 1.26-10.65-.46-15.62-1.97-4.99-7.84-6.35-12.66-6.43-11.96-.14-23.92-.02-35.88-.06z" fill="#05090a"/></svg>