<svg width="640" height="84" viewBox="0 0 480 63" xmlns="http://www.w3.org/2000/svg"><path d="M0 0h78.85c-1.37 5.98-6.32 11.03-12.19 12.65-6.99.49-14.03-.02-21.03.24-.16 16.7-.02 33.41-.07 50.11h-12.2c-.11-16.7.07-33.4-.09-50.1-5.77-.12-11.55-.07-17.32-.03C8.46 13.56 2.34 7.18 0 .62V0zm108.18 0h72.25c-1.81 6.77-8.01 13.21-15.43 12.81-14.36-.1-28.72.03-43.08-.06-6.77-.66-11.56-6.74-13.74-12.75zm107.13 0h68.32c-2.26 7.35-9.77 13.38-17.64 12.7-12.89-.07-25.79-.05-38.69-.02.08 4.12.09 8.23.05 12.35 18.57.13 37.15-.01 55.73.07.01 12.63-.01 25.27.01 37.9h-71.55c4.13-7.16 11.76-13.49 20.48-12.64 13.01.06 26.03-.02 39.05-.01V37.36l-55.82-.04c.15-12.44.03-24.88.06-37.32zm192.74 0H480v1.25c-1.69 4.47-5.04 8.35-9.31 10.51-2.67 1.4-5.76 1.03-8.65 1.07-12.68-.04-25.36-.05-38.04.01-7.67.64-13.82-6.05-15.95-12.84zm-90.27.15c4.05-.03 8.1-.04 12.16.02-.18 16.83-.04 33.66-.09 50.49 18.16.02 36.32-.03 54.48.03-1.31 5.39-5.26 9.91-10.21 12.31h-56.33c-.01-20.95.01-41.9-.01-62.85zM108.3 24.94c24 .24 48-.04 72.01.14-1.54 6.15-6.83 11.65-13.26 12.44-15.01.06-30.02.02-45.03.02-6.75-.61-11.73-6.48-13.72-12.6zm301.84.22c22.8-.05 45.6.02 68.4.03-.06 12.61-.02 25.21-.02 37.81h-12.1c0-8.42-.03-16.84.03-25.25-14.74-.02-29.48-.03-44.22 0 .12 8.42.02 16.83.06 25.25H410.2c-.05-12.61.06-25.23-.06-37.84zM108.15 50.51c24.08-.16 48.16-.04 72.24-.06-1.49 5.78-6.1 10.84-11.87 12.55h-47.99c-6.08-1.48-10.19-6.93-12.38-12.49z" fill="#e82127"/></svg>