<svg width="640" height="84" viewBox="0 0 480 63" xmlns="http://www.w3.org/2000/svg"><path d="M0 0h78.9c-1.79 5.8-6.27 10.97-12.27 12.52-6.9.5-13.84-.16-20.74.27-.76 1.25-.33 2.83-.46 4.22.1 15.28-.01 30.56.06 45.84-3.97-.04-7.94-.06-11.91.15h-.29c-.14-16.74.01-33.48-.07-50.23-6.97-.31-13.96.15-20.92-.21C6.36 11.26 1.88 6.13 0 .52V0zm108.2 0h72.27c-2.09 5.95-6.75 11.91-13.42 12.59-15.03.07-30.06.03-45.09.02-6.8-.51-11.66-6.56-13.76-12.61zm106.96 0h68.43c-2 6.15-7.48 11.09-13.77 12.45-14.23.18-28.48-.04-42.72.1.13 4.1.13 8.2.05 12.31 18.64.06 37.29 0 55.94.03V63h-71.68c3.96-6.9 11.17-13.18 19.57-12.66 13.36.07 26.73-.01 40.09-.01V37.32c-18.66-.06-37.32 0-55.97-.04.15-12.42.02-24.85.06-37.28zm192.85 0h71.59c-.72 6.27-6.45 11.8-12.67 12.62-14.98.08-29.97.01-44.96.03-6.88-.38-11.92-6.51-13.96-12.65zm-90.36.13c4.07.01 8.14-.01 12.21.02-.13 16.82-.01 33.65-.09 50.48 18.18 0 36.37-.03 54.55.01-1.66 5.44-5.42 10.24-10.8 12.36h-55.85c-.01-20.96.01-41.91-.02-62.87zM108.29 24.86c24.03 0 48.07.01 72.11-.01-1.91 6.09-6.85 11.91-13.49 12.64-15.28-.02-30.58.09-45.86-.06-6.3-1.16-10.94-6.66-12.76-12.57zm301.86.1c22.74.03 45.49.2 68.24.12.09 12.64-.22 25.29.16 37.92h-12.27c-.02-8.44-.02-16.87.01-25.31-14.71.01-29.42-.03-44.14.02.15 8.43.04 16.86.08 25.29h-12.07c-.04-12.68-.01-25.36-.01-38.04zM108.18 50.48c24.08-.15 48.16-.02 72.24-.07-1.91 5.87-6.37 11.14-12.56 12.59h-46.85c-6.31-1.31-10.74-6.7-12.83-12.52z" fill="#bfbfbf"/></svg>