<svg width="640" height="103pt" viewBox="0 0 480 103" xmlns="http://www.w3.org/2000/svg"><path d="M0 0h48.9c0 16.33.02 32.66-.01 48.99-16.3.08-32.59.02-48.89-.02V0zm53.61 0h49.13v48.97c-16.37.06-32.73-.07-49.1.08-.05-16.35.01-32.7-.03-49.05zm381.91 22.41c4.02-6.24 12.32-7.48 19.08-5.96.88 3.11.27 6.44.49 9.63-2.85-.82-6.39-2.14-8.94.1-3.57 2.82-1.93 7.91-2.3 11.81 5-.02 10.01.02 15.01-.04-.05-3.33-.07-6.65-.06-9.98 3.61-1.22 7.25-2.37 10.96-3.31-.02 4.45-.03 8.89-.03 13.33 3.42-.01 6.84-.01 10.27-.01v8.9c-3.45.03-6.9.03-10.34.04.27 8.24-.22 16.49.34 24.72.73.82 1.45 1.64 2.19 2.46 2.67.44 5.4.17 7.81-1.13v9.06c-4.75 1.86-10.32 2.4-15.02.12-4.05-2.11-6.2-6.74-6.11-11.19-.12-8.01-.15-16.03.06-24.04-5.04-.03-10.08-.02-15.11-.01.05 11.9.13 23.79-.04 35.69-3.64.03-7.28.02-10.92.04-.1-11.9-.21-23.8.06-35.69-2.54-.04-5.08-.06-7.61-.15-.02-2.92-.02-5.84-.01-8.75 2.51-.05 5.02-.08 7.54-.12-.08-5.25-.63-11.04 2.68-15.52zm-223.13-2.98c4.59-2.21 10.52 2.76 8.78 7.62-1.26 5.26-9.27 6.16-11.91 1.54-2.43-3.2-.24-7.7 3.13-9.16zm-79.29.85c5.1.14 10.23-.26 15.31.18 6.43 14.92 11.74 30.33 18.2 45.25 4.39-11.83 9.44-23.41 14.09-35.14 1.45-3.46 2.66-7.04 4.43-10.37 4.85.25 9.71-.13 14.55.2.06.36.2 1.07.27 1.43.03 18.4-.03 36.8.02 55.21-.04 1.82.17 3.69-.26 5.49-3.57.22-7.14.03-10.72.12-.3-15.71-.15-31.43-.04-47.14-6.81 15.52-12.31 31.62-19.07 47.17-2.46-.06-4.92-.07-7.39-.06-6.3-14.9-12.11-30.01-18.18-44.99-.32-.54-.97-1.63-1.29-2.18.82 15.69.21 31.42.36 47.13-3.46.07-6.92.08-10.38-.04.07-20.76-.14-41.51.1-62.26zm99.31 24.18c7.08-8.27 19.91-9.59 29.48-5.28-.01 3.48-.02 6.97.08 10.45-4.49-2.62-9.83-4.98-15.06-3.09-10.16 3.14-11.84 18.39-4.46 25.11 5.71 4.71 13.84 2.65 19.46-1.11-.03 3.24-.07 6.48.09 9.71-6.94 4.21-16.08 4.5-23.42 1.15-5.87-2.63-9.8-8.39-11.25-14.54-1.3-7.73-.17-16.28 5.08-22.4zm47.53-.17c2.72-5.48 9.18-9.02 15.15-6.57-.07 3.71-.11 7.42.13 11.12-2.71-1.25-5.88-2.7-8.86-1.43-4.96 1.83-6.62 7.76-6.41 12.56-.24 7.49.54 15.21-.36 22.56-3.42.19-6.85.18-10.26-.01l-.29-1.36c-.02-14.38-.01-28.76.01-43.14 3.63-.06 7.28-.06 10.92.01-.01 2.08-.03 4.17-.03 6.26zm31.56-6.69c7-1.35 14.98-1.3 21.01 3.02 6.1 4.3 8.83 12.13 8.53 19.38.37 8.53-4.1 17.32-11.86 21.21-6.29 2.97-13.74 3.18-20.29.96-6.63-2.3-11.65-8.39-12.96-15.24-1.78-7.86-.33-16.79 4.97-23.04 2.74-3.17 6.58-5.25 10.6-6.29m2.82 8.9c-8.32 2.91-8.8 13.65-6.68 20.82 2.16 6.91 11.36 8.98 17.12 5.47 4.26-2.72 4.9-8.18 5.16-12.78-.24-3.68-.78-7.63-3.16-10.59-3.04-3.44-8.21-4.26-12.44-2.92zm35.72-5.75c6.41-5.11 15.68-4.77 22.98-1.89-.11 3.33-.09 6.66-.02 9.99-4.73-2.67-10.88-4.75-15.93-1.7l-.76 2.74.87 2.88c4.67 3.16 10.67 4.13 14.68 8.3 5.45 5.29 3.97 15.4-2.4 19.34-7.17 4.55-16.68 3.93-24.16.46.1-3.48.1-6.95-.08-10.42 5.18 2.84 11.51 6.13 17.41 3.38 2.19-.99 1.28-3.61 1.48-5.5-4.67-3.82-11.21-4.57-15.44-9-4.96-5.07-4.14-14.21 1.37-18.58zm45.48-3.19c8.23-1.65 18.17-.95 23.99 5.87 8.72 10.52 7.25 28.88-4.47 36.66-6.56 4.09-15.02 4.49-22.25 2.09-6.04-2.1-10.75-7.31-12.51-13.42-2.35-7.92-1.29-17.06 3.65-23.79 2.77-3.81 7.07-6.26 11.59-7.41m2.86 8.88c-4.55 1.42-7.49 6.04-7.67 10.67-.54 5.22-.18 11.48 4.21 15.04 5.19 3.77 14.19 3.09 17.13-3.21 2.12-5.34 2.27-11.57.17-16.93-2.14-5.28-8.72-7.23-13.84-5.57zm-189.21-8.37c3.64-.12 7.29-.1 10.93-.08-.07 14.88.15 29.76-.11 44.64-3.5-.09-7.01.2-10.49-.16-.67-1.38-.2-3.04-.34-4.52.05-13.29.03-26.59.01-39.88zM0 53.89c16.3.01 32.6-.01 48.91.01.01 16.37 0 32.73 0 49.1H0V53.89zm53.61.01c16.39-.01 32.77-.03 49.16.01.01 16.36 0 32.73 0 49.09H53.6c0-16.37-.02-32.74.01-49.1z" fill="#bfbfbf"/></svg>