<svg width="640" height="103pt" viewBox="0 0 480 103" xmlns="http://www.w3.org/2000/svg"><path fill="#f25022" d="M0 0h48.72c.04 16.29-.04 32.58.04 48.88-16.25.01-32.51.01-48.76-.01V0z"/><path fill="#7fba00" d="M53.76 0h48.77c.02 16.3-.02 32.59.02 48.89-16.26-.01-32.52-.01-48.78 0 0-16.3 0-32.59-.01-48.89z"/><path d="M436.55 21.41c4.38-5.38 12.03-6.1 18.39-4.63-.07 3-.06 6 .09 9-2.96-.84-6.49-1.98-9.14.24-3.4 3.06-2.15 8.08-2.36 12.11 5.13-.02 10.26-.01 15.39 0l-.02-10c3.51-1.09 7.03-2.18 10.54-3.29-.04 4.43-.03 8.86-.04 13.29 3.53-.02 7.06-.03 10.6.03v8.38c-3.55.05-7.1.03-10.65.05.16 7.13-.02 14.27.08 21.41.03 2.25.48 4.88 2.66 6.07 2.58 1.33 5.45.31 7.91-.8v8.46c-5.06 2.08-11.36 2.57-16.12-.49-3.98-2.64-4.94-7.75-4.96-12.2-.01-7.48-.06-14.96.06-22.44-5.17-.04-10.34-.02-15.5-.01.13 11.91-.03 23.83.09 35.74-3.56 0-7.12 0-10.68-.01.07-11.9-.1-23.8.09-35.7-2.46-.03-4.93-.05-7.39-.04.02-2.82.03-5.64.02-8.46 2.43-.01 4.86 0 7.3 0-.1-5.7-.44-12.15 3.64-16.71zm-224.07-1.73c4.49-2.06 10.12 2.51 8.56 7.32-1.32 4.7-8.26 5.92-11.19 2.06-2.72-2.97-1.06-8.11 2.63-9.38zm-79.4.96c5.16-.03 10.32-.12 15.48.06 5.7 15.25 12.05 30.26 17.7 45.53 6.55-15.08 12.4-30.45 18.72-45.63 4.92.02 9.84-.03 14.77.04-.16 20.54-.17 41.09 0 61.64-3.61.07-7.22.06-10.83.03.15-15.83-.29-31.68.27-47.5-1.73 2.44-2.51 5.35-3.61 8.09-5.21 13.14-10.37 26.29-15.6 39.42-2.53.01-5.07.02-7.6-.05-6.24-15.88-12.72-31.66-18.98-47.52-.49 15.83-.07 31.72-.19 47.58-3.37-.01-6.74.01-10.11-.03.13-20.55.18-41.11-.02-61.66zm101.47 21.95c7.31-6.31 18.41-7.1 27.07-3.28-.09 3.39-.13 6.79.09 10.18-4.26-3.01-9.75-4.98-14.89-3.15-11.45 3.56-12.38 22.73-1.33 27.36 5.44 2.3 11.6.35 16.14-3.02-.09 3.19-.13 6.39.05 9.58-6.48 3.66-14.62 4.07-21.56 1.56-7.72-2.8-12.8-10.76-13.02-18.84-.5-7.41 1.7-15.39 7.45-20.39zm50.47-3.71c2.93-1.97 6.64-1.75 9.95-1.05-.08 3.56-.15 7.12.16 10.67-2.96-1.37-6.53-2.63-9.63-.95-4.16 2.12-5.73 7.13-5.81 11.5-.01 7.75-.1 15.5.07 23.25-3.51.04-7.02.04-10.52 0 .14-14.71.1-29.43.02-44.14 3.5-.06 6.99-.07 10.49 0-.06 2.38-.19 4.75-.18 7.13 1.62-2.28 2.9-5 5.45-6.41zm27.5-1.27c7.5-1.33 16.22-.67 21.95 4.91 6.19 5.92 7.21 15.3 5.8 23.36-1.33 7.46-6.81 14.11-14.15 16.31-7.35 2.13-15.96 1.64-22.3-2.97-9.88-7.44-10.58-22.8-4.52-32.85 2.92-4.63 7.9-7.7 13.22-8.76m.96 8.97c-7.66 3.46-8.36 13.76-6.02 20.8 2.36 7.51 12.94 9.68 18.62 4.68 3.27-3.04 3.87-7.78 3.99-12.01-.13-3.79-.68-7.89-3.29-10.83-3.22-3.71-8.9-4.43-13.3-2.64zm37.11-5.98c6.3-4.72 15.02-4.21 22.11-1.7-.1 3.23-.13 6.47.11 9.7-4.12-2.35-9.24-4.37-13.95-2.61-3.02.98-3.61 5.36-1.16 7.25 4.04 2.91 9.25 3.74 13.07 7.04 6.61 5.12 5.14 16.68-2.2 20.43-6.86 3.83-15.48 3.23-22.55.3-.93-3.23-.03-6.98-.46-10.4 4.74 3.26 10.93 5.77 16.63 3.66 2.9-1.07 3.14-5.57.57-7.13-4.56-3.27-10.72-4.04-14.49-8.47-4.3-5.3-3.28-14.06 2.32-18.07zm44.94-2.79c7.12-1.44 15.29-1.2 21.3 3.38 5.75 4.34 8.11 11.86 7.86 18.85.11 6.5-2.1 13.27-7.01 17.71-6 5.6-15.04 6.65-22.77 4.82-7.05-1.61-12.85-7.36-14.56-14.37-1.62-6.58-1.28-13.86 1.77-19.99 2.62-5.27 7.71-9.08 13.41-10.4m1.88 8.75c-7.56 3.33-8.29 13.36-6.23 20.33 2.04 7.6 12.31 10.16 18.29 5.62 3.08-2.49 4.18-6.62 4.36-10.42.23-4.38-.08-9.27-3.07-12.76-3.18-3.78-8.91-4.56-13.35-2.77zm-187.9-8.44c3.51 0 7.02-.03 10.53.05-.2 14.71-.19 29.43-.01 44.14-3.52.03-7.03.02-10.55.02.09-14.74.03-29.48.03-44.21z" fill="#fff"/><path fill="#00a4ef" d="M0 54.09c16.25-.25 32.52-.19 48.77-.01-.1 16.3-.01 32.61-.04 48.92H0V54.09z"/><path fill="#ffb900" d="M53.78 53.94c16.26.07 32.53-.15 48.79.13-.09 16.31-.01 32.62-.04 48.93H53.77c0-16.35-.01-32.7.01-49.06z"/></svg>