<svg width="640" height="59pt" viewBox="0 0 480 59" xmlns="http://www.w3.org/2000/svg"><path fill="#a7a9ac" d="M430.14 6.09C442.8 3.87 455.53 1 468.46 1.46c-30.79 3.44-61.02 12.76-88.16 27.77-14.42 8.06-27.93 17.88-39.61 29.59-4.94-.05-9.89.2-14.82-.06l-2.13-1.63c29.05-27.62 67.56-43.2 106.4-51.04z"/><path d="M2.73 26.53c1.07-3.98 5.78-4.64 9.26-4.77 9.98-.15 19.97-.03 29.95-.07 4.03.09 8.94.42 11.41 4.12.97.88.22 2.79-1.22 2.37-13.04.21-26.11-.2-39.14.17-1.77 2.07-.34 5.42-.38 7.97 10.81-.05 21.61-.09 32.42.01 3.45.09 7.86.62 9.39 4.24 1.14 4.05.9 8.41.41 12.56-.29 2.96-3.06 4.96-5.85 5.31-5.65.78-11.37.26-17.04.4-8.28-.16-16.59.36-24.84-.3-3.54-.03-6.17-2.7-7.09-5.95 4.91-1.26 10-.49 15-.68 9.9-.15 19.81.28 29.69-.2.35-2.67.27-5.37.23-8.06-11.28-.53-22.59.06-33.87-.3-3.29-.11-7.48-1.19-8.36-4.87-.67-3.92-.68-8.03.03-11.95zm67.56-.5c.18-1.48-.41-3.9 1.76-4.02 7.62-.55 15.28-.02 22.92-.2 7.02.16 14.07-.36 21.08.3 2.91.23 6.44 1.63 6.98 4.87.54 4 .52 8.1.01 12.1-.59 3.73-4.81 4.97-8.06 5.13-10.91.5-21.86-.3-32.76.33-1.81 4.36-.29 9.6-.73 14.28-3.58.01-7.16.06-10.74.18h-.39c-.07-10.99.01-21.98-.07-32.97m11.97 2.47c-1.69 2.48-.68 5.96-.62 8.81 1.27.87 2.92.5 4.36.64 6.99-.07 13.99-.03 20.99-.02 1.67-.12 3.64.16 4.96-1.11.62-2.21.51-4.57.18-6.82-1.31-2.07-4.09-1.5-6.15-1.68-7.9.15-15.83-.23-23.72.18zm61.55.08c2.03-2.38 4.03-4.79 6.03-7.19 9.37 12.58 18.82 25.11 28.3 37.61h-1.61c-3.82-.13-7.63-.18-11.45-.19-1.65-2.29-3.13-4.73-5.14-6.72-1.54-1.58-3.93-1.23-5.92-1.35-9.32.06-18.65.07-27.98.01 1.8-2.21 3.62-4.42 5.43-6.62 7.53-.24 15.1.45 22.6-.54-3.33-5.06-6.83-10.01-10.26-15.01zm47.59-1.29c.43-3.63 4.36-5.08 7.54-5.23 8.01-.58 16.04-.09 24.06-.25 5.76.15 11.67-.56 17.3.95 2.69.65 3.63 3.47 4.89 5.59-13.42.33-26.84-.02-40.25.15-.99-.05-2.59.26-2.39 1.6-.07 7.08-.28 14.2.13 21.27 1.26.78 2.79.77 4.23.82 12.62-.01 25.25-.12 37.87.04-.66 1.48-1.22 3-2.1 4.37-1.87 1.86-4.69 2.01-7.15 2.4h-35.84c-2.9-.44-6.54-.94-7.85-3.99-1.21-3.52-.64-7.33-.75-10.98.19-5.58-.38-11.19.31-16.74zm68.86-5.47c16.96.01 33.92-.01 50.88.01-.03 2.31-.04 4.62-.03 6.93-16.96 0-33.91-.01-50.87 0 .01-2.31.02-4.63.02-6.94zm64.67 1.15l2.05-1.14c5.34-.38 10.71-.01 16.06-.14 4.13 3.09 8.25 6.2 12.4 9.25a155.61 155.61 0 0 0-11.51 6.05c-6.32-4.7-12.75-9.25-19-14.02zm-64.7 11.3c11.39-.02 22.79.03 34.18-.03.01 2.11.02 4.21.04 6.32-7.57.04-15.15-.12-22.71.15-.07 3.88-.08 7.75-.04 11.63 12.97.38 25.94.11 38.91.15-.02 2.17 0 4.34.02 6.51H260.3c-.08-8.24.02-16.49-.07-24.73zm97.74 12.75c3.25-2.48 6.48-5 9.74-7.48 7.42 5.5 14.9 10.91 22.39 16.32.91.49 3.17 2.52.83 2.82-4.95.38-9.93.13-14.9.15-1.84.17-3.21-1.18-4.62-2.12-4.44-3.29-8.91-6.54-13.44-9.69z" fill="#005288"/></svg>