<svg width="640" height="178pt" viewBox="0 0 480 178" xmlns="http://www.w3.org/2000/svg"><path fill="#ff8a00" d="M138.95 0h3.95c6.81.68 13.41 4.1 17.39 9.74 4.5 5.92 5.64 14.03 3.5 21.08-2.58 8.34-10.08 14.91-18.73 16.19-7.54.86-14.4 6.02-16.99 13.2-2.26 5.36-.61 11.21-.69 16.79.23 5.95-1.14 12.02.51 17.85 1.92 7.67 7.45 14.26 14.51 17.73 5.11 2.63 11.14 2.21 16.31 4.67 12.3 5.13 20.43 18.62 19.01 31.91-1.03 15.36-14.77 28.5-30.17 28.84h-3.73c-11.83-.67-22.81-8.57-27.26-19.53-2.08-4.73-1.87-10.1-4.02-14.81-3.45-7.91-10.83-14.03-19.3-15.82-3.35-.73-6.8-.41-10.2-.32-9.94.41-20-2.71-27.99-8.64-5.82-6.12-16.71-5.17-21.69 1.49-1.95 2.72-3.44 5.89-6.25 7.85-5.6 4.35-13.94 4.55-19.74.48C3.2 126 .71 121.3 0 116.47v-3.05c.67-6.87 5.69-13.11 12.44-14.82 5.29-1.57 10.92 1.39 16.1-.95 4.12-1.37 8.83-4.6 8.13-9.56-1.57-13.18 3-26.75 11.87-36.56 2.2-2.41 4.92-5.7 3.08-9.13-1.66-5.61-8.91-5.89-11.16-11.05-3.43-6.14.5-14.71 7.4-16.1 6.62-1.93 14.32 3.73 13.87 10.74-.32 4.02.52 8.93 4.56 10.84 4.09 1.53 8.55.26 12.77.07 6-.78 11.97.39 17.93.91 7.25.6 14.22-3.82 17.95-9.85 2.96-4.53 2.35-10.33 4.96-15.02C123.5 5.7 130.99.89 138.95 0M74.63 51.86c-12.04 2.51-21.92 12.92-23.69 25.11-2.25 12.68 4.64 26.2 16.12 31.98 11.81 6.36 27.62 3.6 36.53-6.44 8.3-8.76 10.49-22.61 5.3-33.49-5.62-12.78-20.64-20.34-34.26-17.16z"/><path d="M467.51 35.53c4.09-3.81 11.03-1.39 12.49 3.83v3.74c-1.34 4.15-6.17 7.21-10.37 5.16-5.07-1.91-6.39-9.3-2.12-12.73m3.96-.04c-4.11.72-5.85 6.2-3.34 9.38 2.14 3.16 7.6 2.89 9.18-.68 2.47-3.86-1.21-9.79-5.84-8.7zm-1.78 2.07c2.15-.24 5.1-.75 6.24 1.69-.35.79-.71 1.56-1.1 2.32.41 1.27.81 2.54 1.2 3.81-1.66-.16-2.28-1.54-2.85-2.87l-1.7-.43-.15 3.25c-3.11-.98-1.17-5.32-1.64-7.77m1.69 1.55c-1.31 1.46 1.37 2.95 2.39 1.62 1.37-1.46-1.38-2.93-2.39-1.62zm-55.67 8.92c-.28-2.43 1.75-4.82 4.21-4.83 3.16-.13 7.52-.78 9.2 2.7.88 2.96.31 6.14.47 9.19-4.75 1.02-8.61 4.23-11.33 8.14 3.08-1.87 6.03-4.4 9.82-4.57 4.33-.27 8.67-.04 13.02-.09-.02 2.19-.02 4.38-.02 6.58-3.33.26-7.47-.97-10.03 1.8-1.9 1.81-1.41 4.64-1.52 7 .12 6.31-.11 12.63.09 18.94-.02 2.52 2 4.78 4.39 5.36 2.83.37 5.69.17 8.54.21-.02 2.15-.03 4.3-.02 6.46-4.53.07-9.06.12-13.59-.02-7.22.02-13.36-6.76-13.24-13.87 0-14.33-.02-28.67.01-43zm34.77-4.46c3.76-.77 10.25-1.55 11.23 3.53.19 11.64.02 23.31.08 34.96.25 2.68-2.13 5.17-4.8 5.12-2.58 0-5.78.65-7.7-1.51-1.54-1.49-1.34-3.75-1.36-5.7.29-11-.24-22.01.18-33.01 0-1.47 1.14-2.7 2.37-3.39zM153.17 65.18c2.51-4.02 7.06-6.72 11.85-6.62 10.64.01 21.28-.04 31.91.02 7.07 0 13.42 6.38 13.33 13.46.03 10.97-.03 21.95.01 32.92-4.61.08-9.22 0-13.82-.08.08-11.27.07-22.55.03-33.83.14-2.98-2.41-5.87-5.45-5.81-6.69-.12-13.39-.05-20.09-.04-3.2-.23-6.11 2.64-6.06 5.82-.1 7.01-.04 14.04-.03 21.05-.25 3.39 2.72 6.4 6.1 6.32 6.57.17 13.16-.05 19.74.08-.03 2.15-.05 4.3-.05 6.45-8.54.08-17.08.02-25.62.06-5.7.13-11.03-3.74-13.06-8.98-1.52-4.84-.53-10.04-.8-15.03.3-5.25-1.12-11.13 2.01-15.79zm65.74-2.23c.11-3.52 4.02-4.88 7.02-4.46 3-.46 6.63 1.21 6.75 4.59.2 10.62-.08 21.26.1 31.88.09 3.41 3.9 6.17 7.18 5.1 4.19-1.13 6.33-5.24 8.67-8.51 7.75-11.01 15.31-22.14 23.2-33.05 4.65.1 9.3.05 13.96.05-8.96 12.53-17.53 25.35-26.42 37.93-3.3 4.61-8.3 8.59-14.27 8.32-6.57-.19-13.9 1.68-19.83-1.97-3.96-2.55-6.49-7.12-6.42-11.85.03-9.34-.11-18.69.06-28.03zm66.04 9.04c.09-7.28 6.76-13.71 14.06-13.43 10.64.02 21.27-.06 31.91.03 7.03.06 13.25 6.45 13.21 13.47.08 10.96-.01 21.93.03 32.89-4.61.15-9.22.16-13.83-.05.08-11.31.09-22.63.02-33.94.08-2.89-2.4-5.69-5.34-5.72-6.7-.13-13.41-.04-20.11-.04-3.19-.24-6.3 2.52-6.12 5.78-.11 7.02-.04 14.04-.03 21.06-.33 3.47 2.8 6.68 6.29 6.38 6.5.1 13-.04 19.51.04-.02 2.15-.02 4.3-.01 6.45-7.52.24-15.03-.09-22.54.13-2.36 0-4.76.01-7.05-.59-5.79-1.66-10.15-7.4-10.02-13.45-.02-6.34-.08-12.68.02-19.01zm66.34-2.93c.89-5.19 5.48-9.28 10.61-10.12 3.68-.59 7.42-.26 11.14-.32 7.95.08 15.91-.3 23.85.07 6.9.64 11.9 7.07 12.32 13.74-4.68.12-9.36.09-14.03.04.35-3.27-1.54-7.04-5.14-7.23-6.67-.15-13.35-.16-20.02 0-7 .6-7.04 12.93-.02 13.5 8.68.33 17.38-.1 26.06.18 3.65.11 7.3 1.58 9.74 4.36 2.94 3.28 3.65 8.06 2.72 12.26-1.43 5.46-6.9 9.35-12.48 9.35-8.68.25-17.38-.1-26.06.17-4.51.02-9.54.26-13.27-2.74-3.62-2.57-5.47-6.87-5.84-11.19 4.6-.13 9.2-.07 13.8-.08-.05 3.3 1.74 7.15 5.42 7.4 6.6.17 13.21.16 19.81.01 5.43-.38 7.08-8.24 3.29-11.55-1.59-1.7-4.06-1.59-6.18-1.61-7.35.02-14.69.03-22.03.03-3.77.09-7.7-1.14-10.34-3.92-3.02-3.27-3.97-8.03-3.35-12.35zM71.95 64.93c6.78-3.8 15.81-2.8 21.61 2.37 4.27 3.62 6.67 9.17 6.66 14.74-.08 4.09.74 8.74-1.96 12.22-1.71 2.57-4.82 3.48-7.68 4.11-.11-5.76.1-11.52-.06-17.28-.21-4.83-4.66-9.05-9.53-8.83-4.82-.16-9.18 4.03-9.45 8.8-.44 4.53 2.94 9.1 7.42 9.96 2.59.45 5.23.3 7.85.39-.58 4.02-3.38 8-7.7 8.37-8.21 1.09-15.1-6.3-16.72-13.81-2.02-8.14 2.17-17.17 9.56-21.04zm379.43 26.58c2.73-.23 5.85-.78 8.34.65 2.68 1.7 2.12 5.23 2.09 7.93.08 2.59-2.17 4.89-4.76 4.87-3.11.3-7.52.51-8.77-3.11-.69-3.47-1.19-9.07 3.1-10.34zm-121.67 34.98c.37-2.13 2.65-2.42 4.41-2.49 1.05 6.98-2.33 13.62-3.52 20.39 2.97-3.01 5.98-6.73 10.45-7.29 2.6-.24 4.7 2.31 4.72 4.77.45 6.04-3.2 11.61-7.79 15.22-2.48 1.85-5.84 3.21-8.91 2.18-2.36-.78-2.86-3.52-4.06-5.38 1.1-9.2 2.52-18.4 4.7-27.4m-.5 27.5c1.33 2.38 4.11 1.28 5.82.02 3.85-2.92 6.45-7.67 6.17-12.58-6.08 1.1-10.32 6.95-11.99 12.56zm64.1-27.81c2.77-2.82 8.66-2.47 9.74 1.83.44 2.59-.78 7.48-4.33 6.41-.34-1.8 1.08-5.96-1.56-6.01-3.2 2.68-3.47 7.38-4.21 11.24 2.72-.01 5.47-.2 8.17.29.37 4.22-5.58 3.38-8.45 3.85-.8 5.39-1.64 10.88-.83 16.32-1.56.97-3.87 2.13-5.08.04-2.1-5.88 3.31-12.77-.67-18.17 4.42-4.3 2.43-11.71 7.22-15.8zm-44.55 30.08c-2.48-7.44 2.14-16.24 9.25-19.16 3.36-1.52 8.05.92 7.5 4.91-.8 6.35-7.41 9.53-12.93 11.01 1.26 4.29 6.69 3.13 9.22.73 1.6-.98 2.88-3.51 5.04-2.31.06 3.97-3.94 6.59-7.17 8.08-3.78 1.56-9.2.99-10.91-3.26m4.32-7.31c3.05-.83 6.11-2.36 7.82-5.14.85-1.37.54-2.46-.92-3.25-3.61 1.38-5.52 5.02-6.9 8.39zm68.76 4.12c-.33-6.68 3.87-13.73 10.24-16.06 3.36-1.37 7.75 1.2 7.29 5.04-.97 6.26-7.38 9.53-12.96 10.91.72 1.07 1.15 2.84 2.73 2.89 4.11.66 7-2.69 9.94-4.91.46.24 1.37.71 1.82.95-1.67 5.61-8.13 9.38-13.85 8.16-3.17-.65-5.2-3.87-5.21-6.98m4.99-4.16c2.89-.72 5.74-2.1 7.51-4.58 1.11-.97 1.06-3.02-.38-3.64-3.85.95-5.63 4.93-7.13 8.22zm17.13-1.94c1.87-4.71 5.65-9.62 11.02-10.24 3.36-.56 6.41 2.9 5.44 6.17-1.45 5.85-7.55 8.68-12.87 10.13 1.51 4.53 7.22 2.93 9.79.3 1.27-1.06 3.4-3.6 4.72-1.25-1.84 6.07-9.66 10.07-15.55 7.3-4.16-2.56-3.98-8.32-2.55-12.41m4.18 1.94c3.07-.78 6.08-2.38 7.81-5.13.86-1.39.53-2.46-.97-3.22-3.57 1.41-5.53 4.97-6.84 8.35zm-44.71-8.87c.57-2.35 4.31-3.14 5.25-.61-.34 3.24-1.74 6.26-2.15 9.49 2.8-3.88 4.78-9.01 9.53-10.94 3.36-1.55 8.14 2.29 5.55 5.75-1.83.6-3.25-.91-4.74-1.69-4.28 3.51-7.73 8.32-8.61 13.87-.3 2.02-.78 4.67-3.37 4.71-2.44-.7-2.48-3.54-2.54-5.6-.05-5.01.12-10.06 1.08-14.98z" fill="#444e5a"/></svg>