<svg width="640" height="127pt" viewBox="0 0 480 127" xmlns="http://www.w3.org/2000/svg"><path d="M19.56 9.12c.22-2.82 2.2-6.06 5.38-5.86 13.99-.05 27.99-.13 41.98.06 9.15.53 19.45 2.82 25.19 10.61 4.47 5.44 4.82 13.07 3.74 19.74-1.41 12.67-8.19 25.46-19.93 31.31-9.39 5.23-20.51 5.04-30.93 4.91-2.72.03-6.12-.36-7.87 2.24-1.64 2.57-1.64 5.78-2.18 8.7-1.12 9.74-2.99 19.38-4.49 29.07-7.51.05-15.02.08-22.54.03-2.16.3-4.37-1.79-3.72-3.99C9.52 73.69 14.4 41.39 19.56 9.12zm139.61 26.13c9.26-.39 18.55-.06 27.82-.15 7.32.13 16.06 2.22 19.55 9.39 3.5 6.93 1.79 15.21-.87 22.14-2.02 5.76-6.49 10.45-11.91 13.14-6.51 2.86-13.75 3.02-20.73 2.8-2.09-.05-5.22-.16-5.68 2.51-1.32 6.08-1.98 12.29-3.16 18.39-.24 1.9-2.3 3.1-4.11 2.93-4.05 0-8.1.13-12.14-.08-.42-.35-1.27-1.05-1.7-1.39 3.26-22.21 7.09-44.36 10.35-66.56.23-1.39 1.16-2.77 2.58-3.12m15.23 14.24c-1.83.06-1.85 2.12-2.16 3.45-.83 5.18-1.63 10.37-2.57 15.53 3.78-.06 7.61.26 11.34-.49 6.92-.98 10.22-10.21 6.83-15.85-3.5-3.4-8.97-2.68-13.44-2.64zm40.64 14.63c7.31-6.18 17.9-8.35 26.93-4.96 2.5.84 4.31 2.82 6 4.74.13-1.97.13-5.35 3.02-5.1 4.67.37 9.83-1.13 14.15 1.06-1.72 13.47-4.46 26.79-6.33 40.24-.27 2.3-.12 5.38-2.92 6.13-4.26.34-8.57.26-12.83.06-2.79-.79-1.12-3.93-.76-5.76-6.88 6.83-18.02 9.09-26.92 5.14-4.48-1.64-7.38-5.82-9.25-10.01-4.28-10.97.23-24.03 8.91-31.54m15.36 7.49c-6.48 2.31-10.3 9.68-8.53 16.31 1.05 5.73 8.16 7.45 13.08 6.2 7.85-1.23 13.27-10.68 10.01-18.01-2.69-5.17-9.43-6.6-14.56-4.5zm40.74-9.71c-1.02-1.82 1.07-3.39 2.77-3.09 4.06-.02 8.14-.17 12.19.11 1.61.22 2.63 1.68 2.91 3.19 2.05 7.93 5.15 15.57 6.83 23.6 5.66-7.99 10.95-16.23 16.59-24.23.89-1.15 1.8-2.79 3.5-2.64 4.03-.12 8.06-.09 12.09-.02 1.71-.27 3.66 1.84 2.28 3.35-14.09 20.04-27.87 40.29-41.97 60.31-5.25.94-10.87.53-16.21.21-1.93-1.83.48-3.67 1.46-5.27 3.77-5.24 7.51-10.51 11.22-15.8-4.59-13.22-8.97-26.53-13.66-39.72z" fill="#002d82"/><path d="M75.92 64.98c11.74-5.85 18.52-18.64 19.93-31.31 6.95 3.62 10.67 11.66 10.05 19.32-.55 10.29-3.91 21.16-11.78 28.21-7.01 6.42-16.88 8.53-26.13 8.59-2.28.13-4.93-.41-6.78 1.29-1.98 1.74-1.81 4.62-2.28 6.99-.7 6.73-2.02 13.38-3.06 20.06-.22 2.08-1.43 4.68-3.84 4.74-6.69.18-13.4.05-20.1.06-1.31.13-3.09-.43-3.16-2.01.23-3.71 1.18-7.34 1.68-11.02 1.5-9.69 3.37-19.33 4.49-29.07.54-2.92.54-6.13 2.18-8.7 1.75-2.6 5.15-2.21 7.87-2.24 10.42.13 21.54.32 30.93-4.91zm266.4-29.58c5.16-.73 10.45-.11 15.67-.31 8.37.28 17.29-1.17 25.07 2.75 5.81 2.48 9.18 8.95 8.9 15.12-.13 9.92-4.09 20.74-13.06 25.92-7.23 4.1-15.86 3.78-23.9 3.71-2.21-.31-4.48 1.16-4.66 3.47-.9 5.94-1.53 11.93-2.69 17.84-.13 1.31-1.23 2.59-2.63 2.47-4.62.04-9.27.19-13.88-.11-.34-.31-1.01-.94-1.35-1.26 2.04-15.88 4.86-31.67 7.42-47.48.69-6.21 1.76-12.37 2.78-18.54.19-1.45.82-3.07 2.33-3.58m13.59 15.62c-.73 5.81-1.57 11.62-2.82 17.35 4.49.1 9.15.53 13.46-.99 5.3-2.2 7.38-9.18 5.38-14.28-2.1-3.77-7.16-3.56-10.92-3.72-1.72.1-4.43-.54-5.1 1.64zm104.35-11.18c.41-1.72.19-4.86 2.78-4.7 4.67.22 9.6-.87 14.08.78-1.6 12.74-4.16 25.34-6.01 38.04-1.17 9.7-3.07 19.29-4.54 28.95-.13 1.82-1.68 3.6-3.6 3.46-3.7.07-7.4.14-11.09-.05-.42-.36-1.25-1.09-1.66-1.45l10.04-65.03zM401.8 61.8c6.98-4.56 16.14-5.47 23.92-2.52 2.38.85 3.95 2.94 5.75 4.61.39-1.65-.05-3.79 1.55-4.9 3.98-.47 8.01-.13 12.01-.21 1.49-.26 3.2.43 3.38 2.11-2.09 14.1-4.29 28.18-6.67 42.23-.2 1.41-1.16 3.02-2.7 3.17-2.99.26-5.98.08-8.97.14-1.79-.13-4.14.48-5.11-1.5.11-1.49.43-2.96.71-4.43-8.09 8.35-23.19 9.91-31.9 1.74-10.85-12.02-5.19-32.59 8.03-40.44m11.66 9.98c-6.75 2.71-11.08 11.55-7.4 18.22 2.92 4.84 9.74 5.39 14.59 3.48 7.16-2.4 10.69-11.66 7.26-18.3-3.09-4.6-9.61-5.55-14.45-3.4z" fill="#009cde"/></svg>