<svg width="640" height="73pt" viewBox="0 0 480 73" xmlns="http://www.w3.org/2000/svg"><path d="M19.47 0h9.09c6.65.26 14.3 2.5 17.63 8.8 2.38 4.03 1.79 8.86 1.78 13.32l-17.35.01c-.12-2.57.33-5.31-.76-7.73-2.54-3.88-9.8-3.57-11.33 1.07-1.22 2.98.26 6.43 2.87 8.12 7.84 5.71 17.82 8.42 24.39 15.87 5.1 5.75 4.69 14.28 2.84 21.26C46.34 68.27 38.42 72.12 31.1 73H19.16C10.12 72.41.72 66.29 0 56.58v-8.66c6.21 0 12.41-.03 18.62.01.15 3.19-.27 6.45.48 9.57 2.75 4.66 11.71 4.26 12.84-1.5.97-3.28-.63-6.61-3.26-8.55-7.77-6.11-17.97-8.86-24.55-16.51C1.47 28.04.57 24.1 0 20.32v-.04c.4-4.32.84-9 3.66-12.52C7.3 2.75 13.61.81 19.47 0zm210.49 4.95C235.95.56 243.76-.1 250.94.23c6.33.4 13.47 2.03 17.31 7.57 3.15 4.18 2.73 9.63 2.69 14.57-5.77.04-11.55.04-17.32 0-.07-2.39.25-4.87-.53-7.18-1.99-4.48-9.98-4.33-11.4.53-1.06 2.89.11 6.29 2.72 7.94 7.45 5.41 16.71 8.13 23.32 14.75 3.08 3.01 4.79 7.22 4.9 11.51.19 5.62-.42 11.87-4.39 16.21-4.14 4.68-10.61 6.07-16.52 6.87h-6.89c-5.86-.67-12.21-1.93-16.55-6.27-5-4.75-6-12.59-4.76-18.92 6.07-.28 12.17-.02 18.26-.07.03 2.99-.28 6.03.29 9 1.43 3.76 6.23 4.23 9.59 3.17 4.39-2.03 4.63-8.73 1.06-11.68-5.67-5.02-13-7.54-19.16-11.85-4.34-3.01-8.67-7.01-9.58-12.47-1.3-6.71.26-14.66 5.98-18.96zm211.8-2.34c8.29-3.31 17.84-3.29 26.3-.6 6.47 2.06 11.11 8.06 11.94 14.75v7.34c-5.88.01-11.76.02-17.63 0-.33-3.22.8-7.26-2-9.66-3.88-3.62-12.08-1.31-11.71 4.61-.09 11.66-.16 23.34.03 34.99.49 6.85 12.45 7.17 13.6.54.42-4.09.09-8.23.21-12.34-2.37 0-4.74 0-7.11-.01-.01-3.39-.01-6.78.01-10.17 8.2-.04 16.4-.02 24.6-.01v21.44c-.09 4.34-1.56 8.76-4.67 11.88-4.95 5.11-12.45 6.56-19.31 6.58-6.92.07-14.54-1.14-19.71-6.12-3.81-3.47-5.29-8.78-5.22-13.8.02-11.04-.11-22.1.07-33.14.13-6.85 4.08-13.7 10.6-16.28zM73.32 2.06c10.26-.02 20.52 0 30.78-.01 4.44 22.8 8.28 45.71 12.88 68.48-6.27.25-12.54.07-18.81.11-3.31-20.78-6.37-41.6-9.19-62.45-3.32 20.76-6.33 41.61-9.49 62.41-6.32.09-12.65.06-18.97.01 4.3-22.84 8.47-45.71 12.8-68.55zm58.32.01c9.4-.04 18.8 0 28.2-.02 3.02 17.45 5.89 34.95 8.48 52.48 3.08-17.46 5.62-35.01 8.66-52.47 9.41-.01 18.82-.01 28.24 0 .65 22.83.84 45.67 1.63 68.5-5.9.16-11.79.11-17.69.03-.22-20.65.19-41.33-.55-61.97-3.34 20.65-7.5 41.17-11.31 61.74-5.82.58-11.83.34-17.69.1-4.08-20.46-7.49-41.07-11.69-61.51.09 20.55-.14 41.09-.18 61.63-5.88.11-11.77.11-17.65 0 .54-22.84 1.04-45.68 1.55-68.51zm156.48.02c5.93-.07 11.87-.06 17.8 0-.02 17.31-.02 34.62-.01 51.93-.27 4.74 5.57 7.48 9.5 5.47 2.62-.91 3.85-3.84 3.67-6.45-.01-16.98.01-33.97-.02-50.95 5.91-.06 11.83-.07 17.74.01-.03 16.66.01 33.32-.01 49.98.09 5.73-1.54 11.97-6.23 15.67-5.49 4.3-12.83 5.06-19.58 4.96-6.01-.27-12.52-1.29-17.16-5.45-4.08-3.49-5.69-9.04-5.67-14.26-.05-16.97.01-33.94-.03-50.91zm67.17.01c8.61-.11 17.22 0 25.84-.06 5.44 17.96 10.47 36.04 15.99 53.98-.54-17.98-.88-35.95-1.08-53.93 5.78-.07 11.55-.03 17.33-.03.01 22.61.05 45.22-.02 67.83-8.3-.13-16.61.25-24.9-.2-5.36-18.59-11.34-37.01-16.77-55.58.18 18.57.6 37.14.96 55.71-5.78.1-11.57.11-17.35 0 .02-22.58.01-45.15 0-67.72z" fill="#bfbfbf"/></svg>