<svg width="640" height="260" viewBox="0 0 480 195" xmlns="http://www.w3.org/2000/svg"><path d="M13.7 0h6.14c1.75 1.28 3.54 2.87 3.7 5.19.63 7.66 1.58 15.31 1.53 23.02l1.42.06c.62-7.96 1.04-15.94 2.02-23.87.32-2.05 2.07-3.29 3.64-4.4h9.76c1.89 1.47 3.68 3.42 3.68 5.96.49 7.4 1.6 14.76 1.54 22.19.46 0 1.37-.01 1.82-.02-.01-7.68.8-15.35 1.72-22.97.16-2.42 2-4.15 4.05-5.16h9.1c1.6 1.09 3.32 2.35 3.7 4.39 1.29 8.26.88 16.77 2.97 24.89.83-5.75 1.11-11.56 1.69-17.34.3-4.25.09-9.45 4.31-11.94h9.76c4.92 2.72 3.65 8.76 4.61 13.39l3.37-.01C95.1 8.75 93.89 2.7 98.79 0h6.35c5.15 2.57 3.66 8.73 3.78 13.38 27.03.04 54.07-.11 81.1.08 6.59.04 7.66 10.96 1.89 13.12-9.59 1.69-19.51.74-29.03 2.91 8.93 1.17 17.96 1.35 26.93 2.14 2.92.16 5.68 2.47 5.67 5.53.14 3.72.89 9.22-3.57 10.76-9.6 1.98-19.66.9-29.24 3 6.06 1.5 12.38.94 18.53 1.82 3.79.59 7.93-.22 11.48 1.47 3.51 1.92 2.9 6.44 2.82 9.8.07 2.62-1.55 5.61-4.42 5.81-9.35 1.33-18.84 1.34-28.19 2.69 9.21 1.87 18.73 1.49 28.03 2.83 2.71.32 4.65 2.94 4.57 5.61.03 3.22.69 7.15-1.91 9.61-1.72 1.09-3.8 1.29-5.72 1.78v4.22c2.32.58 5.34.45 6.7 2.82 1.29 2.47 1.39 5.67.23 8.21-1.38 2.49-4.43 2.67-6.9 3.17 0 26.12 0 52.24-.02 78.36.42 2.62-1.66 4.41-3.48 5.88h-6.51c-1.36-1.18-3-2.36-3.39-4.23-1.15-9.45-.7-19.09-2.37-28.47-1.69 6.51-1.01 13.31-1.93 19.94-.59 4.42.66 10.16-4.04 12.76h-9.42c-1.76-1.17-3.65-2.69-3.66-5.01-.89-8.78-1.4-17.59-2.11-26.39l-1-.02c-.82 8.8-1.23 17.64-2.1 26.44-.05 2.24-1.9 3.72-3.52 4.98h-9.59c-2.3-1.56-3.9-4.03-3.66-6.89-.51-8.16-1.29-16.3-1.9-24.46l-1.11.03c-.38 8.63-1.17 17.23-1.87 25.83-.06 2.34-1.58 4.16-3.37 5.49h-10.07c-3.66-2.51-3.7-7.12-3.73-11.1h-4.05c-.18 3.95-.09 8.74-3.92 11.1h-7.02c-3.7-2.59-3.09-7.16-3.05-11.09-28.37-.02-56.75.04-85.12-.04-2.65.22-4.49-1.89-5.88-3.84v-5.77c2.58-5.4 9.24-3.85 14.07-4.54 6.23-.81 12.66-.12 18.77-1.76-9.36-1.76-19.03-1.13-28.45-2.59-2.06-.24-3.29-2.04-4.39-3.59v-9.06c1.3-1.58 2.7-3.54 4.98-3.58 9.26-1.3 18.66-1.23 27.9-2.62-9.47-1.85-19.21-1.47-28.74-2.96-1.93-.31-2.99-2.15-4.14-3.53v-9.01c1.13-1.4 2.21-3.16 4.11-3.55 9.51-1.46 19.3-.93 28.73-2.97-9.24-1.24-18.59-1.44-27.86-2.52-2.28-.06-3.73-1.98-4.98-3.63v-9.1c1.17-1.52 2.41-3.29 4.45-3.63 9.44-1.38 19.11-.9 28.51-2.62-4.88-1.5-10.03-.9-15.03-1.54-4.47-.6-9.03-.35-13.46-1.24-2.07-.33-3.39-2.07-4.47-3.71v-5.99c2.1-3.5 6.07-3.9 9.78-3.79-.27-26.6-.05-53.2-.12-79.8C9.28 3.9 11.03 1.29 13.7 0zm206.25 146.44c10.19-32.63 19.97-65.38 30.07-98.04 7.67.04 15.34-.04 23.02.03 4-.03 7.63 2.98 8.66 6.8 9.49 30.35 18.5 60.85 28.15 91.15-7.76.12-15.52.04-23.28.05-1.83-6.37-3.55-12.76-5.39-19.13-10.88 0-21.76.01-32.64 0-1.69 6.39-3.61 12.73-5.26 19.13-7.78.01-15.55.01-23.33.01m44.82-78.02c-3.77 13.44-7.32 26.94-11.22 40.35l22.35-.03c-3.86-13.4-7.19-26.95-11.13-40.32zm33.04-20.01c7.64 0 15.29-.03 22.93.02 7.12 25.71 13.61 51.59 20.82 77.26 6.89-25.76 13.58-51.58 20.68-77.29 7.63.03 15.27-.03 22.91.04-8.82 30.15-17.13 60.45-25.78 90.65-1.2 4.11-5.11 7.29-9.44 7.31-8.1.11-16.2.01-24.29.02-9.27-32.67-18.38-65.39-27.83-98.01zm92.68 28.47c.34-14.56 12.7-27.98 27.45-28.44 13.33-.05 26.66-.07 40 .02-2.41 6.93-4.18 14.06-6.52 21.02-9.84-.03-19.69-.13-29.54.02-4.9.02-9.27 4.56-9.13 9.46.03 12.33-.01 24.67.03 37.01-.05 4.87 4.29 9.41 9.22 9.28 7.09.11 14.18-.04 21.27.06-.07-7.46-.02-14.91-.03-22.36-2.38-2.07-4.74-4.15-7.07-6.27 9.26.21 18.52.08 27.78.09.01 16.56-.06 33.11.03 49.67-15.32-.04-30.66.07-45.98-.05-14.7-.57-27.05-13.79-27.51-28.33-.08-13.72-.07-27.45 0-41.18zm79.82 65.95c-.67-2.57 1.55-4.87 3.76-5.78 2.32-.58 4.26.99 5.93 2.35v4.53a96.476 96.476 0 0 1-3.32 3.07c-.3-1.21-.54-2.44-.75-3.66-1.07.15-2.14.29-3.2.42.61-1.31.74-2.68.38-4.12-1.35.74-1.47 2.52-.88 3.8l.5.32c.86 1.06 1.68 2.16 2.45 3.31-1.97-.88-4.31-1.94-4.87-4.24m3.44-5.31c2.6 1.29 3.48 3.64 3.43 6.29.25.08.75.25 1 .34 2.49-3.28-1.39-6.23-4.43-6.63zm-277.63 50.46c1.96-3.89 8-2.97 9.07 1.12.96 2.38-1.16 4.32-2.61 5.9h-4.33c-1.89-1.72-4.28-4.52-2.13-7.02m1.24.23c-.26 1.26-.46 2.52-.58 3.8 1.49.94 2.94 1.94 4.53 2.72l1.27-2.15c2.32-1.56 1.47-4.26-.87-5.26l1.1-.58c-1.83.38-3.84.41-5.45 1.47zm1.96 3.54c-2.66-2.03.28-3.9 2.39-4.43.21.92.63 2.77.85 3.7-.82.94-2.12.89-3.24.73m.89-2.62z" fill="#bfbfbf"/></svg>