<svg width="640" height="73pt" viewBox="0 0 480 73" xmlns="http://www.w3.org/2000/svg"><path d="M2.27 10.28C5.76 2.92 14.53.28 22.09.08c7.74-.26 16.8.2 22.35 6.38 3.86 4.23 3.6 10.28 3.45 15.61H30.78c-.12-2.39.3-4.92-.58-7.2-1.75-3.7-7.16-4.23-10.19-1.87-2.76 2.47-2.65 7.39.23 9.74 5.4 4.67 12.33 6.96 18.23 10.87 5.19 3.24 10.45 7.91 10.97 14.41.5 6.02.33 12.82-3.68 17.73-3.95 4.82-10.34 6.61-16.3 7.25h-8.89c-5.76-.59-11.85-2.2-15.97-6.54C1.75 63.54.43 59.5 0 55.51v-7.43c6.14-.18 12.28.11 18.42-.15.14 3.05-.29 6.19.45 9.18 2.31 5.38 12.17 4.96 13.19-1.18 1.14-3.6-1.09-7.09-3.95-9.1-7.34-5.48-16.52-8.31-23.02-14.96C-.5 26.31-.73 17.18 2.27 10.28zm230.14-6.73c6.57-3.42 14.3-3.58 21.52-2.86 5.74.67 12.04 2.95 14.95 8.32 2.34 4 1.86 8.78 1.98 13.22-5.71.03-11.41.01-17.12.01-.13-2.62.59-5.59-.98-7.92-2.27-3.1-7.39-3.31-10.07-.64-2.43 2.75-1.92 7.47 1.09 9.61 7.91 6.21 18.47 8.75 25.11 16.65 4.3 4.97 3.96 12.09 3.04 18.18-.81 5.36-4.67 9.97-9.61 12.08-6.32 2.76-13.44 2.95-20.2 2.25-6.33-.74-13.06-3.38-16.38-9.15-2.85-4.64-2.44-10.26-2.44-15.47 6.06-.03 12.13.06 18.2-.06.12 2.74-.08 5.48.21 8.21 1.36 6.11 11.96 6.29 13.29.06 1.14-3.33-.55-6.82-3.24-8.82-7.03-5.53-15.94-8.24-22.5-14.43-8.61-7.54-7.24-23.92 3.15-29.24zm204.52 2.33c5.42-4.83 13.13-5.71 20.11-5.57 6.93.17 14.67 1.8 19.19 7.54 3.68 4.53 3.77 10.67 3.58 16.22-5.76-.04-11.51.08-17.26-.1-.21-3.02.56-6.55-1.54-9.07-3.52-4.25-12.16-2.49-12.48 3.48-.26 11.83-.16 23.68-.05 35.51.49 6.82 11.67 7.63 13.82 1.44.78-4.34.18-8.79.39-13.18l-7.1-.01-.01-10c8.14-.01 16.28-.03 24.42.01v20.9c-.33 4.42-1.49 9.04-4.74 12.25-5.24 5.3-13.13 6.58-20.28 6.49-7.04-.05-14.83-1.62-19.67-7.16-3.3-3.68-4.13-8.8-4.09-13.58 0-10.04-.03-20.09.02-30.13-.04-5.46 1.42-11.32 5.69-15.04zM73.37 2.21c10.22-.1 20.44-.03 30.66-.04 4.26 22.75 8.29 45.54 12.74 68.25-6.22.03-12.45.07-18.67-.02-2.88-20.83-6.3-41.58-9-62.42-1.13 2.48-1.1 5.26-1.52 7.91-2.72 18.18-5.53 36.35-8.22 54.54-6.24.03-12.49.02-18.73 0 4.4-22.71 8.54-45.47 12.74-68.22zm58.4-.05c9.35.03 18.7-.02 28.05.02 2.75 17.56 5.93 35.06 8.34 52.66.77-2.52 1.25-5.11 1.61-7.72 2.39-14.98 4.88-29.94 7.26-44.93 9.36-.06 18.73-.01 28.1-.03.42 22.76.91 45.51 1.54 68.26-5.81.01-11.62.1-17.42-.05.2-14.47-.16-28.94-.14-43.41-.22-6.23.18-12.48-.58-18.69-3.35 20.8-7.61 41.44-11.36 62.17-5.82.01-11.65.01-17.48 0-3.94-20.52-7.47-41.13-11.65-61.59-.57 2.34-.21 4.76-.2 7.14-.02 18.15-.32 36.3-.27 54.45-5.81-.02-11.62.08-17.43-.07.75-22.73 1.12-45.47 1.63-68.21zm156.49.03c5.85-.04 11.71-.06 17.56.02-.13 17.26-.05 34.53-.05 51.79-.22 4.63 5.22 7.52 9.23 5.79 2.92-.8 4.4-3.96 4.21-6.81-.01-16.93.07-33.86-.05-50.78 5.82-.06 11.65-.04 17.47-.02-.11 16.97.03 33.93-.07 50.9 0 4.88-1.32 10.05-4.95 13.52-4.62 4.52-11.4 5.73-17.63 5.9-6.72.14-14.06-.54-19.53-4.85-4.42-3.44-6.18-9.22-6.11-14.64-.11-16.94.06-33.88-.08-50.82zm67.25-.04c8.51.04 17.03 0 25.54.02 4.41 14.94 8.8 29.89 13.19 44.84.93 3.06 1.5 6.27 2.98 9.14-.61-17.97-.58-35.97-1.09-53.95 5.7-.08 11.41-.01 17.11-.04 0 22.52-.01 45.04 0 67.57-8.2-.08-16.41.11-24.61-.1-5.53-18.66-11.39-37.23-16.93-55.89-.42 2.73-.17 5.48-.08 8.22.26 15.89.54 31.77.9 47.65-5.7.19-11.4.15-17.1.03.2-22.5.02-45 .09-67.49z" fill="#0c4da2"/></svg>