<svg width="640" height="260" viewBox="0 0 480 195" xmlns="http://www.w3.org/2000/svg"><path d="M14.57 0h4.11c1.01.43 1.98.91 2.94 1.45-3.39 4-7.73 7.26-10.08 12.07-.57-.92-1.14-1.83-1.72-2.74C9.48 6.67 9.48 1.05 14.57 0zm85.11 0h3.95c2.47.41 4.8 2.26 5.04 4.87.16 2.9.05 5.8.15 8.7-4.79.01-9.58-.03-14.38-.01.84-4.71-.68-11.77 5.24-13.56z" fill="#e08818"/><path d="M33.11 0h7.44l.95.23c.31 1.16.63 2.32.95 3.48C38.72 5.23 35 6.77 31.18 8.05c-.91-.64-1.81-1.28-2.71-1.91C28.29 3.18 30.38.8 33.11 0zm44.27 0h7.93c5.87 1.83 4.27 8.66 5.46 13.26-1.96 0-3.95-.05-5.88.4-3.04 1.67-4.5 5.12-2.85 8.32l-.08 2.08c-3.78 1.65-7.88 3.2-10.16 6.89-.8 2.23-1.03 4.67-2.13 6.78-2.8 2.77-6.72 3.82-10.38 4.96-2.59.75-4.68 2.55-7.13 3.59-4.29.76-8.74-.47-12.99.76-3.13.92-6.29-.25-9.41-.63-6.77-.9-12.19-5.38-17.99-8.6-.67 1.44-1.35 2.87-1.93 4.35.02-7.46 0-14.93.01-22.39.76 1.74 1.63 3.43 2.52 5.1 3.59-6.16 7.44-12.15 11.14-18.25.14 2.41.31 4.81.58 7.21-1.79 4.63-5.12 8.33-8.01 12.27-1.48 1.8.25 4.03 1.94 4.87 5.79 3.16 12.43 4.52 18.98 4.81 4.01.12 8.08 1.27 12.05.21 7.08-1.69 13.99-4.05 20.61-7.07l1.14-.56c1.01-7.76 1.37-15.61 2.25-23.38.22-2.47 2.22-4.06 4.33-4.98z" fill="#f4b026"/><path fill="#fbc02e" d="M41.5.23c2.19 1.09 4.01 3.2 3.85 5.78.45 7.46 1.73 14.87 1.71 22.36l1.87.03c.42-8.34 1.02-16.71 2.23-24.97C53.08-.71 58.21 0 61.95.11c2.81-.08 5.3 2.24 5.53 5.02l2.18 23.79c-6.62 3.02-13.53 5.38-20.61 7.07-3.97 1.06-8.04-.09-12.05-.21-6.55-.29-13.19-1.65-18.98-4.81-1.69-.84-3.42-3.07-1.94-4.87 2.89-3.94 6.22-7.64 8.01-12.27.55 4.84.57 9.73 1.17 14.56.33.11 1.01.32 1.35.42.49-7.57 1.26-15.11 1.86-22.67.9.63 1.8 1.27 2.71 1.91C35 6.77 38.72 5.23 42.45 3.71c-.32-1.16-.64-2.32-.95-3.48z"/><path fill="#eca221" d="M21.62 1.45c1.36 1.38 1.79 3.29 1.89 5.17-3.7 6.1-7.55 12.09-11.14 18.25-.89-1.67-1.76-3.36-2.52-5.1-.05-3 .01-6-.03-8.99.58.91 1.15 1.82 1.72 2.74 2.35-4.81 6.69-8.07 10.08-12.07z"/><path fill="#00638f" d="M82.04 21.98c-1.65-3.2-.19-6.65 2.85-8.32 3.19.24 6.37-.02 9.55-.1 4.8-.02 9.59.02 14.38.01 3.95 0 7.9-.01 11.86.01 3.93 3.92 8.47 7.73 14.09 8.75 7.71 1.36 15.72.81 23.25-1.27 6.13-1.48 12.7-2.9 17.37-7.47 4.86.02 9.73-.14 14.6.03 6.94-.12 7.49 12.06.89 13.11-9.19.91-18.43 1.12-27.61 2.11l.87.85c9.13 1.44 18.53 1.04 27.64 2.52 4.2 1.35 3.67 6.33 3.64 9.83-1.2-.83-2.27-1.96-3.67-2.44-9.13-1.65-18.45-1.56-27.7-1.48-6.72.04-13.15 2.24-19.64 3.73-4.48.79-7.3 4.83-11.69 5.93-4.7 4.96-9.12 10.91-9.9 17.92-1.52 7.83-3.17 15.63-4.46 23.5-.08 1.19-.55 3.01 1.02 3.47 3.79.81 7.51-.65 11.02-1.91l3.35-.62c4.96-.14 9.28-2.71 13.96-4.01l1.05 1.37c-5.48 2.44-12.4 1.91-16.89 6.22h-.02c-8.71 2.24-17.44 4.43-26.2 6.5l-3.93.89c-.63-2.26-1.22-4.54-1.71-6.83-.22-.99-.45-1.97-.68-2.95-.41-1.67-.9-3.31-1.4-4.96-4.74-19.9-9.78-39.73-14.73-59.59-.35-1.61-.75-3.21-1.16-4.8z"/><path fill="#00719e" d="M120.68 13.58c3.94.01 7.89-.05 11.84 0 1.37 1 2.69 2.21 4.4 2.58 7.19 1.78 14.84 1.78 21.98-.26 1.39-.42 2.44-1.51 3.61-2.31 4.29-.04 8.59 0 12.88 0-4.67 4.57-11.24 5.99-17.37 7.47-7.53 2.08-15.54 2.63-23.25 1.27-5.62-1.02-10.16-4.83-14.09-8.75z"/><path d="M132.52 13.58c9.99-.01 19.99-.02 29.99.01-1.17.8-2.22 1.89-3.61 2.31-7.14 2.04-14.79 2.04-21.98.26-1.71-.37-3.03-1.58-4.4-2.58zm55.02 83.36c1.99.24 4.41-.1 5.93 1.49 2.3 1.79 1.95 4.99 1.76 7.56-.68 3.46-4.45 4.65-7.55 4.33-.1-4.46.12-8.92-.14-13.38z" fill="#0085b6"/><path fill="#db7d17" d="M82.04 21.98c.41 1.59.81 3.19 1.16 4.8-.04.5-.12 1.5-.17 2l-2.22-1.62c-2.72 1.27-6.55 2.33-6.96 5.85-.57 5.55 2.5 10.59 4.49 15.58.02 1.77-.01 3.54-.01 5.31-4.49 3.96-10.38 5.84-14.75 9.95-4.6.1-7.94 4.42-12.61 4.25-3.9 0-7.75 1.01-11.64.84-3.21-1.06-6.45-1.93-9.85-1.96-2.5-2.07-5.16-3.92-8.04-5.43-4.24-3.18-7.42-7.55-11.61-10.8l-.01-4.18c1.3-.06 2.74-.27 3.8.7 7.05 4.86 14.53 10.6 23.56 10.24 4.64-.36 9.54.65 13.92-1.33 3.21-1.41 6.88-1.4 9.92-3.2 4.41-2.6 9.26-4.52 13.1-7.98-.8-4.68-1.99-9.29-2.32-14.05 2.28-3.69 6.38-5.24 10.16-6.89l.08-2.08z"/><path fill="#b95216" d="M73.85 33.01c.41-3.52 4.24-4.58 6.96-5.85l2.22 1.62c.05-.5.13-1.5.17-2 4.95 19.86 9.99 39.69 14.73 59.59-6.65-7.22-9.27-16.89-13.82-25.37-2.09-4.06-3.64-8.37-5.77-12.41-1.99-4.99-5.06-10.03-4.49-15.58z"/><path fill="#e6941c" d="M69.67 37.73c1.1-2.11 1.33-4.55 2.13-6.78.33 4.76 1.52 9.37 2.32 14.05-3.84 3.46-8.69 5.38-13.1 7.98-3.04 1.8-6.71 1.79-9.92 3.2-4.38 1.98-9.28.97-13.92 1.33-9.03.36-16.51-5.38-23.56-10.24-1.06-.97-2.5-.76-3.8-.7-.01-1.47-.01-2.94.02-4.41.58-1.48 1.26-2.91 1.93-4.35 5.8 3.22 11.22 7.7 17.99 8.6 3.12.38 6.28 1.55 9.41.63 4.25-1.23 8.7 0 12.99-.76 2.45-1.04 4.54-2.84 7.13-3.59 3.66-1.14 7.58-2.19 10.38-4.96z"/><path fill="#0075a3" d="M144.41 41.85c6.49-1.49 12.92-3.69 19.64-3.73 9.25-.08 18.57-.17 27.7 1.48 1.4.48 2.47 1.61 3.67 2.44.18 2.96-1.8 5.83-4.87 6.12-7.82.8-15.68 1.21-23.53 1.8a9.32 9.32 0 0 0-4.04 1.01c-3.19 1.57-6.86 1.52-10.11 2.9-4.08 1.68-8.3 3.37-11.58 6.42-5.58 4.99-10.63 10.99-12.93 18.23-1.2 3.58-2.81 7.21-2.38 11.09 1.47.38 2.94.79 4.42 1.15-3.51 1.26-7.23 2.72-11.02 1.91-1.57-.46-1.1-2.28-1.02-3.47 1.29-7.87 2.94-15.67 4.46-23.5.78-7.01 5.2-12.96 9.9-17.92 4.39-1.1 7.21-5.14 11.69-5.93z"/><path fill="#d67411" d="M78.34 48.59c2.13 4.04 3.68 8.35 5.77 12.41 4.55 8.48 7.17 18.15 13.82 25.37.5 1.65.99 3.29 1.4 4.96l-.64 1.11-73.82-.07c-1.11.01-2.22.05-3.32.11-2.54-.01-5.08.03-7.61-.18 1.79-.05 3.58-.2 5.38-.29 4.86.07 9.79-.27 14.39-1.98-1.44-2.42-3.42-4.42-5.15-6.63-.79-3-.03-6.21-.61-9.26-1.57-2.44-4.03-4.09-6.13-6.03-4.24-3.61-7.65-8.09-11.99-11.6v-5.76c4.19 3.25 7.37 7.62 11.61 10.8 2.88 1.51 5.54 3.36 8.04 5.43 3.4.03 6.64.9 9.85 1.96 3.89.17 7.74-.84 11.64-.84 4.67.17 8.01-4.15 12.61-4.25 4.37-4.11 10.26-5.99 14.75-9.95 0-1.77.03-3.54.01-5.31m5.97 35.6c-4.41 3.09-9.91 3.87-14.51 6.62-2.72.01-5.64-.48-8.17.79 9.8.19 19.58 1.16 29.39.63 2.58-.18 5.75.87 7.82-1.16l-1.61-.06c-1.12-3.82-3.24-7.31-6.4-9.79-2.39.46-4.52 1.62-6.52 2.97z"/><path d="M250.08 48.53c7.61.02 15.23-.02 22.84.02 3.68-.11 7.22 2.49 8.45 5.92 9.55 30.57 18.64 61.29 28.35 91.81-7.68.11-15.35 0-23.02.06-1.88-6.28-3.67-12.59-5.28-18.94-10.99-.38-22.02-.19-33.02-.1-1.61 6.38-3.53 12.67-5.22 19.02-7.69.02-15.39-.02-23.08.02 10.12-32.56 19.92-65.23 29.98-97.81m14.39 20.26c-3.43 13.42-7.39 26.7-10.94 40.08l22.47-.08c-3.28-11.68-6.38-23.4-9.59-35.1-.63-1.62-.27-3.89-1.94-4.9zm33.38-20.23c7.66.01 15.32-.15 22.98.09 6.36 24.52 13.16 48.93 19.46 73.48.42 1.02.26 2.65 1.64 2.99 6.49-25.59 13.52-51.05 20.3-76.56 7.61.02 15.23-.19 22.85.12-9.1 30.27-17.22 60.85-26.07 91.2-1.43 3.65-5.06 6.37-9.03 6.42-8.08.06-16.16.01-24.24.02-8.84-31.12-17.64-62.24-26.44-93.36-.44-1.48-.94-2.95-1.45-4.4zm92.75 28.45c.23-14.28 12.07-27.46 26.45-28.42 13.58-.12 27.17-.06 40.76-.02-2.45 6.85-4.08 13.96-6.51 20.82-9.75-.11-19.5-.09-29.24-.03-5.04 0-9.52 4.58-9.44 9.62.06 12.31 0 24.63.02 36.95.02 4.94 4.36 9.54 9.36 9.45 7.13.09 14.26-.03 21.39.05-.08-7.49-.01-14.98-.04-22.47-2.32-2.05-4.65-4.09-6.91-6.21 9.15.22 18.31.07 27.46.09.05 16.49-.12 32.99.08 49.48-15.32-.01-30.66.05-45.98-.03-14.34-.58-26.56-13.17-27.34-27.38-.18-13.96-.06-27.94-.06-41.9zm80.75 67.53c-2.64-2.78.22-7.39 3.68-7.48 2.09-.27 3.62 1.39 4.97 2.71v4.03c-1.81 3.04-6.56 4.05-8.65.74m1.82-5.4c-1.88.79-1.18 3.02-1.26 4.61 1.74 1.89 5.28 2.52 6.56-.2 2.33-3.02-2.72-7.16-5.3-4.41zm.49 5.27c-.37-2.15-1.14-5.18 2.05-5.66l-.59 3.54 1.07-2.91c1.34 1.08.93 3.05.56 4.5l-1.25-.63-1.84 1.16zm-274.12 41.16c3-.52 6.35 2.35 5.7 5.48-.19 1.79-1.81 2.81-2.99 3.95h-3.51c-1.69-1.13-3.4-2.65-3.41-4.86.46-2.13 2.02-4.09 4.21-4.57m-2.24 2.7c-.67 1.8-.77 4.58 1.57 5.31-.26-1.96-.43-3.94.11-5.86.5.15 1.5.43 2 .57l1.03-.66.74-.49c-2-.98-3.94-.27-5.45 1.13m4.71-.64c.27 1.83.24 3.66-.09 5.49l-1.87-1.98c-.26.72-.79 2.14-1.06 2.85l2.56-.2c2.34-1.26 3.89-5.17.46-6.16m-1.77 1.58z" fill="#0d090a"/><path fill="#008bbd" d="M152.87 53.87c3.25-1.38 6.92-1.33 10.11-2.9 3.15 1.41 6.71.87 10.06 1.24 5.6.48 11.21.95 16.82 1.32 2.89.1 5.56 2.44 5.43 5.46-.05 3.12.68 6.71-1.38 9.36-4.49-.16-7.84-3.54-12.12-4.36-2.67-.65-5.43-.37-8.12-.81-7.36-1.72-15.33.08-21.83 3.72-7.07 5.01-15.1 10.43-17.87 19.07 3.31-.27 6.56-.92 9.82-1.54-3.08 2.38-6.97 3.31-10.04 5.71l-3.35.62c-1.48-.36-2.95-.77-4.42-1.15-.43-3.88 1.18-7.51 2.38-11.09 2.3-7.24 7.35-13.24 12.93-18.23 3.28-3.05 7.5-4.74 11.58-6.42z"/><path fill="#d15017" d="M9.83 56.51c4.34 3.51 7.75 7.99 11.99 11.6 2.1 1.94 4.56 3.59 6.13 6.03.58 3.05-.18 6.26.61 9.26 1.73 2.21 3.71 4.21 5.15 6.63-4.6 1.71-9.53 2.05-14.39 1.98-1.16-.62-2.3-1.29-3.44-1.94-1.07-4.17-2.22-8.32-3.34-12.47-1.07-3.69-.73-7.74-2.65-11.17-.14-3.31-.07-6.61-.06-9.92z"/><path fill="#00a2d6" d="M151.84 66.9c6.5-3.64 14.47-5.44 21.83-3.72 2.69.44 5.45.16 8.12.81 4.28.82 7.63 4.2 12.12 4.36-1.13.8-2.4 1.41-3.8 1.45-8.9 1.03-17.86 1.36-26.75 2.38.24.26.73.8.98 1.06 8.56.88 17.21 1.26 25.79 2.18 1.73.04 3.18.99 4.39 2.15-.9.48-1.79.96-2.68 1.43-.8 3.27-1.37 6.58-1.84 9.91.64.81 1.28 1.62 1.93 2.43-1.4.22-2.81.4-4.21.6-.17-3.25.95-7.33-2.13-9.58-3.68-2.69-8.11.7-12.07 1.09-.72-2.71-1.94-5.88-4.95-6.69-4.46-.57-9.27-.57-13.32 1.67-3.82 2-7.57 4.12-11.46 6-3.26.62-6.51 1.27-9.82 1.54 2.77-8.64 10.8-14.06 17.87-19.07z"/><path fill="#c93015" d="M9.89 66.43c1.92 3.43 1.58 7.48 2.65 11.17 1.12 4.15 2.27 8.3 3.34 12.47 1.14.65 2.28 1.32 3.44 1.94-1.8.09-3.59.24-5.38.29-2.46-.68-3.71-3.03-4.09-5.38-.07-6.83-.09-13.66.04-20.49z"/><path fill="#006e9a" d="M155.25 78.43c4.05-2.24 8.86-2.24 13.32-1.67 3.01.81 4.23 3.98 4.95 6.69-.72.18-2.15.53-2.87.7-12.94 3.14-25.82 6.51-38.78 9.57 4.49-4.31 11.41-3.78 16.89-6.22l-1.05-1.37c-4.68 1.3-9 3.87-13.96 4.01 3.07-2.4 6.96-3.33 10.04-5.71 3.89-1.88 7.64-4 11.46-6z"/><path fill="#0092c5" d="M191.84 79c.89-.47 1.78-.95 2.68-1.43 1.24 2.96.79 6.28.7 9.4.07 2.03-1.63 3.52-3.29 4.37-.65-.81-1.29-1.62-1.93-2.43.47-3.33 1.04-6.64 1.84-9.91z"/><path fill="#dc9b00" d="M84.31 84.19c2-1.35 4.13-2.51 6.52-2.97 3.16 2.48 5.28 5.97 6.4 9.79-9.14-.15-18.29.25-27.43-.2 4.6-2.75 10.1-3.53 14.51-6.62z"/><path fill="#c01217" d="M173.52 83.45c3.96-.39 8.39-3.78 12.07-1.09 3.08 2.25 1.96 6.33 2.13 9.58-.02 1.67-.06 3.34-.18 5l-.55-.78.11-1.42c.35-1.87-.37-3.8-1.8-5.04-4.21-2.41-9.15-2.82-13.86-3.34-.2-.55-.59-1.65-.79-2.21.72-.17 2.15-.52 2.87-.7z"/><path fill="#c53015" d="M131.87 93.72c12.96-3.06 25.84-6.43 38.78-9.57.2.56.59 1.66.79 2.21 4.71.52 9.65.93 13.86 3.34 1.43 1.24 2.15 3.17 1.8 5.04-4.95-1.46-9.84-3.19-14.89-4.27-3.53-.42-7.13-.37-10.67.05-7 .89-12.95 7.3-13.22 14.33 1.32 6.33 1.68 12.88 3.79 19.05 1.4 4.65 3.67 8.97 5.44 13.48 3.43 9.09 7.31 18.42 14.37 25.33-1.25 3.68-.86 7.63-1.27 11.44l-3.3.38c-7.52-6.63-13.74-14.82-17.86-23.97-3.41-9.29-5.52-18.99-8.75-28.34-1.51-4.44-1.58-9.7-5.09-13.19-1.44-1.58-.72-4.01-1.86-5.75-.58-.95-1.25-1.85-1.9-2.76.92-2.22.73-4.56-.04-6.8h.02z"/><path fill="#528728" d="M0 91.61c1.06-4.48 6.02-5.1 9.85-4.69.38 2.35 1.63 4.7 4.09 5.38 2.53.21 5.07.17 7.61.18-3.83 2.41-8.41.96-12.17-.8-2.7 2.23-5.38 4.48-7.84 6.97-.55-.94-1.06-1.9-1.54-2.86v-4.18z"/><path fill="#d44c0f" d="M161.54 90.52c3.54-.42 7.14-.47 10.67-.05 5.05 1.08 9.94 2.81 14.89 4.27l-.11 1.42c-.5 2.6-.92 5.21-1.32 7.82-4.52-1.4-8.52-4.76-13.46-4.53-4.09-.06-9.12.73-10.82 5.06-3.89 7.46.37 15.38 2.43 22.66 1.65 6.58 5.86 12.01 9.07 17.86 3.16 6.19 8.08 11.39 13.65 15.48.21 2.66.39 5.32.74 7.96-.15 3.41-.32 6.82-.56 10.22-4.56-4.29-10.19-7.56-13.72-12.86-.04-1.15-.4-2.19-1.08-3.12-7.06-6.91-10.94-16.24-14.37-25.33-1.77-4.51-4.04-8.83-5.44-13.48-2.11-6.17-2.47-12.72-3.79-19.05.27-7.03 6.22-13.44 13.22-14.33z"/><path fill="#6c9527" d="M9.38 91.68c3.76 1.76 8.34 3.21 12.17.8 1.1-.06 2.21-.1 3.32-.11 1.03 3.18 1.69 8.54 6.15 8.32 8.6-.29 16.73-3.77 25.3-4.52 14.4-2.78 29.12-1.7 43.69-1.89.49 2.29 1.08 4.57 1.71 6.83.51 1.88 1 3.77 1.47 5.67-.87 1.26-1.5 2.87-3.02 3.51-4.09 2.1-8.59 3.22-12.78 5.09-6.93 3.15-14.99 4.41-20.63 9.92-1.94.89-3.83 1.9-5.78 2.75-2.4 1.23-5.23.18-7.66 1.3-4.3 1.93-9.06 1.2-13.62 1.24-3.18-.07-6.45.33-9.53-.67-3.33-1.08-6.46-2.66-9.76-3.81 4.01-.35 8.05-.35 12.02-1.03-.98-1.2-2.61-1.07-3.98-1.29-5.02-.48-10.07-.67-15.09-1.23-3.9-3.97-7.49-8.98-13.3-10.14-.58-3.83 2.65-7.22 6.5-6.97 3.41 7.7 11.8 10.65 18.74 14.23 9.65 2.42 20.11 2.45 29.59-.87 4.32-1.53 9.05-1.66 13.17-3.81 5.38-1.91 10.95-3.27 16.31-5.25 1.25-.47 2.17-1.48 3.19-2.31-3.04-3.57-5.34-8.61-10.32-9.79-4.02-.63-8.12-.4-12.17-.48-11.13-.26-21.76 3.47-32.6 5.37-2.15-.28-4.29-.58-6.44-.72-.52-2.23-.73-5.26-3.18-6.26-4.69.68-9.89 1.54-13.37 5.06-2.74-.15-5.67-.19-7.94-1.97 2.46-2.49 5.14-4.74 7.84-6.97z"/><path fill="#f69b01" d="M61.63 91.6c2.53-1.27 5.45-.78 8.17-.79 9.14.45 18.29.05 27.43.2l1.61.06c-2.07 2.03-5.24.98-7.82 1.16-9.81.53-19.59-.44-29.39-.63z"/><path fill="#456723" d="M99.33 91.33c.23.98.46 1.96.68 2.95-14.57.19-29.29-.89-43.69 1.89-8.57.75-16.7 4.23-25.3 4.52-4.46.22-5.12-5.14-6.15-8.32l73.82.07.64-1.11z"/><path fill="#af0c16" d="M105.65 100.22c8.76-2.07 17.49-4.26 26.2-6.5.77 2.24.96 4.58.04 6.8.65.91 1.32 1.81 1.9 2.76 1.14 1.74.42 4.17 1.86 5.75-.15 3.65-.35 7.3-.92 10.92-.32-1.22-.63-2.43-.95-3.64l-1.74 1.48c-5.92-2.4-12.97.74-16.86 5.35-.22 9.15 5.25 16.91 9.11 24.79 2.21 4.56 5.63 9.1 4.81 14.46-.73 1.51-1.24 3.13-1.35 4.82-2.79.79-5.64 2.16-8.59 1.28 3-2.11 8.68-2.88 8.41-7.54-.9-7.53-6.41-13.29-9.25-20.09-2.87-6.93-6.59-13.54-8.52-20.83-2.14-6.38-5.1-12.92-4.15-19.81z"/><path d="M9.48 100.62c3.48-3.52 8.68-4.38 13.37-5.06 2.45 1 2.66 4.03 3.18 6.26-5.53-.18-11.02-.94-16.55-1.2zm22.99 1.92c10.84-1.9 21.47-5.63 32.6-5.37 4.05.08 8.15-.15 12.17.48 4.98 1.18 7.28 6.22 10.32 9.79-1.02.83-1.94 1.84-3.19 2.31-5.36 1.98-10.93 3.34-16.31 5.25-4.12 2.15-8.85 2.28-13.17 3.81-9.48 3.32-19.94 3.29-29.59.87-6.94-3.58-15.33-6.53-18.74-14.23 8.28-.57 16.57-1.14 24.84-1.84l1.07-1.07z" fill="#86a724"/><path fill="#ea7601" d="M185.67 103.98c.4-2.61.82-5.22 1.32-7.82l.55.78c.26 4.46.04 8.92.14 13.38-.02 19.75.12 39.51-.07 59.26l-.33-1.11c-.35-2.64-.53-5.3-.74-7.96-5.57-4.09-10.49-9.29-13.65-15.48-3.21-5.85-7.42-11.28-9.07-17.86-2.06-7.28-6.32-15.2-2.43-22.66 1.7-4.33 6.73-5.12 10.82-5.06 4.94-.23 8.94 3.13 13.46 4.53z"/><path fill="#740e11" d="M101.72 101.11l3.93-.89c-.95 6.89 2.01 13.43 4.15 19.81 1.93 7.29 5.65 13.9 8.52 20.83 2.84 6.8 8.35 12.56 9.25 20.09.27 4.66-5.41 5.43-8.41 7.54l-.69-.09c-.86-3.39-1.76-6.77-2.58-10.17-2.72-11.96-5.89-23.81-8.82-35.71-.32-1.35-.64-2.7-.97-4.04-.99-3.9-1.98-7.79-2.91-11.7-.47-1.9-.96-3.79-1.47-5.67z"/><path fill="#528a39" d="M100.17 110.29c1.52-.64 2.15-2.25 3.02-3.51.93 3.91 1.92 7.8 2.91 11.7-4.22 1.01-8.08 3.05-11.44 5.76-2.22 1.89-5.33 2.9-6.64 5.68-.29-.22-.85-.68-1.14-.91-1.45-.09-2.86-.45-4.25-.84-.99.31-1.96.63-2.94.95-.57-.28-1.13-.56-1.69-.83l-1.58-4.08c-.19 1.29-.38 2.57-.58 3.86-.72-1.11-1.44-2.22-2.16-3.34-2.17 1.19-4.59 1.18-6.92.57 5.64-5.51 13.7-6.77 20.63-9.92 4.19-1.87 8.69-2.99 12.78-5.09z"/><path fill="#c01a17" d="M135.65 109.03c3.51 3.49 3.58 8.75 5.09 13.19 3.23 9.35 5.34 19.05 8.75 28.34 4.12 9.15 10.34 17.34 17.86 23.97l3.3-.38c-.15 2.97-.38 5.94-.69 8.9-5.89-5.43-12.94-9.5-18.49-15.28-.13-1.75-.23-3.57-1.34-5.01l-.36 1.45c-2.17-1.49-4.07-3.4-4.96-5.92-2.87-6.96-4.94-14.2-7.74-21.18-1.64-6.45-4.02-12.72-5.03-19.32l1.74-1.48c.32 1.21.63 2.42.95 3.64.57-3.62.77-7.27.92-10.92z"/><path fill="#4a8428" d="M.06 112.42c5.81 1.16 9.4 6.17 13.3 10.14-3.66-.62-7.74.26-11.07-1.66-2.75-1.92-2.19-5.59-2.23-8.48z"/><path fill="#bb0717" d="M115.18 123.14c3.89-4.61 10.94-7.75 16.86-5.35 1.01 6.6 3.39 12.87 5.03 19.32 2.8 6.98 4.87 14.22 7.74 21.18.89 2.52 2.79 4.43 4.96 5.92-.8 8.61-1.26 17.26-2 25.87-.13 2.23-1.87 3.82-3.65 4.92h-8.55c-2.26-.76-4.07-2.71-4.2-5.14-.69-9.16-1.27-18.34-2.27-27.47.82-5.36-2.6-9.9-4.81-14.46-3.86-7.88-9.33-15.64-9.11-24.79z"/><path fill="#337e41" d="M94.66 124.24c3.36-2.71 7.22-4.75 11.44-5.76.33 1.34.65 2.69.97 4.04-1.64 3.64-3.9 7.45-3.19 11.61.9 4.76.04 9.63.79 14.41.6 5.37 3.05 10.38 2.98 15.86-1.14 1.2-1.99 2.63-2.51 4.2-2.17.45-2.65-1.78-3.36-3.31-1.54.63-3.08 1.28-4.54 2.09-.57.34-1.73 1.01-2.3 1.34-1.49-1.88-1.46-4.34-2.11-6.54-1.11-2.1-3.19-3.41-4.85-5.03.1-.29.29-.87.38-1.16.01-3.18-.68-6.32-.47-9.5.16-3.67-1.26-7.15-2.1-10.67.18-1.18.51-2.32.92-3.43.43-.83.87-1.65 1.31-2.47 1.31-2.78 4.42-3.79 6.64-5.68z"/><path fill="#227f53" d="M103.88 134.13c-.71-4.16 1.55-7.97 3.19-11.61 2.93 11.9 6.1 23.75 8.82 35.71-2 2.7-.32 5.97-.75 8.98-.53 4-1.02 8.06-2.27 11.92-.63 2.24-2.97 3.24-4.62 4.61l-1.72.04c-.16-3.32.69-6.52 1.5-9.69.89-3.2-.05-6.48-.38-9.69.07-5.48-2.38-10.49-2.98-15.86-.75-4.78.11-9.65-.79-14.41z"/><path fill="#448228" d="M73.68 124.73c.72 1.12 1.44 2.23 2.16 3.34.2-1.29.39-2.57.58-3.86l1.58 4.08c-1.05 1.61-1.97 3.32-3.2 4.81-1.24.75-3.12.49-3.88 1.96 1.13 2.72 4.07 4.49 4.43 7.57.36 1.89-.4 3.73-.88 5.53-.29-1.36-.57-2.71-.85-4.07-2.53 4.96-1.72 10.68-.69 15.91 3.3 1.4 7.16.75 10.5 2.24-.09 1.25.04 2.51.16 3.76-.29.21-.86.64-1.14.85-.13 1.33-.38 2.65-.88 3.9-5.25-.86-10.13-4.28-15.66-2.81l-.46-.48-.24.48c-3.15.48-6.02 2.04-9.2 2.32-2.89.2-5.37 1.88-8.24 2.19-2.16.02-2.94 2.31-4.02 3.79-3.2.1-4.63-3.45-7.73-3.79.16-.33.48-.99.65-1.32-.78-.38-1.55-.76-2.32-1.13-.15-1.03-.28-2.05-.42-3.06 3.81-3.09-.98-7.69 1.07-11.49-2.75-2.01-3.89-5.25-5.02-8.31l2.46-.59c-.9-.66-1.97-.98-3.08-1l-.06-1.99c-7.01-4.23-12.21-10.65-17.56-16.7 2.9-.15 5.78-.52 8.67-.75 3.3 1.15 6.43 2.73 9.76 3.81 3.08 1 6.35.6 9.53.67 4.56-.04 9.32.69 13.62-1.24 2.43-1.12 5.26-.07 7.66-1.3 1.95-.85 3.84-1.86 5.78-2.75 2.33.61 4.75.62 6.92-.57z"/><path fill="#2b7b2a" d="M5.83 127.23c1.96-.17 3.94-.25 5.91-.37 5.35 6.05 10.55 12.47 17.56 16.7l.06 1.99c-5.11-.12-10.18-.95-15.3-1.07-3.52-5.39-4.61-11.92-8.23-17.25z"/><path d="M.09 132.98c-.26-3.25 2.73-5.57 5.74-5.75 3.62 5.33 4.71 11.86 8.23 17.25-3.65-.44-7.42-.38-10.98-1.36-3.8-1.87-3.05-6.65-2.99-10.14zM0 153.36c.93-1.63 1.97-3.68 4.06-3.94 3.98-.76 8.05-.89 12.09-1.16 1.42 5.92 1.89 12.04.63 18.04-4.32-.36-8.7-.34-12.96-1.18-1.94-.39-2.93-2.28-3.82-3.84v-7.92z" fill="#007431"/><path fill="#3e7f33" d="M78 128.29c.56.27 1.12.55 1.69.83.98-.32 1.95-.64 2.94-.95 1.39.39 2.8.75 4.25.84.29.23.85.69 1.14.91-.44.82-.88 1.64-1.31 2.47-.41 1.11-.74 2.25-.92 3.43.84 3.52 2.26 7 2.1 10.67-.21 3.18.48 6.32.47 9.5-.09.29-.28.87-.38 1.16l-1.15 1.4-2.97-.42c.2 1.39-.11 2.76-.43 4.11-3.34-1.49-7.2-.84-10.5-2.24-1.03-5.23-1.84-10.95.69-15.91.28 1.36.56 2.71.85 4.07.48-1.8 1.24-3.64.88-5.53-.36-3.08-3.3-4.85-4.43-7.57.76-1.47 2.64-1.21 3.88-1.96 1.23-1.49 2.15-3.2 3.2-4.81z"/><path fill="#327b2a" d="M17.93 148.14c4.01-.47 8.04-.65 12.05-1 1.13 3.06 2.27 6.3 5.02 8.31-2.05 3.8 2.74 8.4-1.07 11.49-.72.04-1.44.09-2.17.15-2.8.07-5.61-.06-8.4-.25-.59-5.26-.91-10.61-2.42-15.72-.36-1.47-1.96-2.07-3.01-2.98z"/><path fill="#217a2b" d="M16.15 148.26l1.78-.12c1.05.91 2.65 1.51 3.01 2.98 1.51 5.11 1.83 10.46 2.42 15.72-2.2-.18-4.39-.39-6.58-.54 1.26-6 .79-12.12-.63-18.04z"/><path fill="#44903a" d="M87.98 157.15c1.66 1.62 3.74 2.93 4.85 5.03.65 2.2.62 4.66 2.11 6.54.57-.33 1.73-1 2.3-1.34l-.21 2.52c-.04 1.19-.04 2.38-.04 3.57-.25.62-.51 1.25-.77 1.88.66 1.91 1.36 3.95.47 5.92-2.27.46-4.51 1.05-6.73 1.66-2.65-.07-5.82.82-8.1-.74-.9-3.71-1.27-7.71-.29-11.44.5-1.25.75-2.57.88-3.9.28-.21.85-.64 1.14-.85-.12-1.25-.25-2.51-.16-3.76.32-1.35.63-2.72.43-4.11l2.97.42 1.15-1.4z"/><path fill="#018567" d="M115.14 167.21c.43-3.01-1.25-6.28.75-8.98.82 3.4 1.72 6.78 2.58 10.17.78 4.07 2.76 8.1 2.28 12.3-2.23 4.24-7.61 2.89-11.5 3.04h-1c1.65-1.37 3.99-2.37 4.62-4.61 1.25-3.86 1.74-7.92 2.27-11.92z"/><path fill="#388d4a" d="M97.24 167.38c1.46-.81 3-1.46 4.54-2.09.71 1.53 1.19 3.76 3.36 3.31.52-1.57 1.37-3 2.51-4.2.33 3.21 1.27 6.49.38 9.69-.81 3.17-1.66 6.37-1.5 9.69-.44 0-1.33.01-1.78.02-4.51-.07-9.03.16-13.54-.15l-1.25-.72c2.22-.61 4.46-1.2 6.73-1.66.89-1.97.19-4.01-.47-5.92.26-.63.52-1.26.77-1.88 0-1.19 0-2.38.04-3.57l.21-2.52z"/><path fill="#368834" d="M31.76 167.09c.73-.06 1.45-.11 2.17-.15.14 1.01.27 2.03.42 3.06.77.37 1.54.75 2.32 1.13-.17.33-.49.99-.65 1.32-1.22 2.77-2.74 6.28-6.48 5.42-1.33-.41-2.63-.88-3.96-1.27.32-.37.97-1.12 1.3-1.49-1.3-.23-2.59-.45-3.88-.66.97-.35 1.95-.69 2.92-1.02l-2.09-.56c.15-1.25.27-2.51.38-3.75 2.44-.16 4.88-.21 7.32-.27.06-.44.18-1.32.23-1.76z"/><path fill="#c52915" d="M173 165.83c3.53 5.3 9.16 8.57 13.72 12.86.24-3.4.41-6.81.56-10.22l.33 1.11c.08 7.49.39 15.03-.18 22.51-4.96-2.28-9.15-5.85-13.38-9.24-.38-5.67-.89-11.34-1.05-17.02z"/><path fill="#569b30" d="M65.21 167.94l.24-.48.46.48c5.53-1.47 10.41 1.95 15.66 2.81-.98 3.73-.61 7.73.29 11.44 2.28 1.56 5.45.67 8.1.74l1.25.72c-20.58.17-41.18.2-61.76-.02l.91-.12c1.62-.17 3.24-.29 4.87-.31 4.3.07 8.61.14 12.89-.38-.89-2.53-2.47-4.71-4.37-6.58 1.08-1.48 1.86-3.77 4.02-3.79 2.87-.31 5.35-1.99 8.24-2.19 3.18-.28 6.05-1.84 9.2-2.32z"/><path fill="#bb0416" d="M119.16 168.49c2.95.88 5.8-.49 8.59-1.28-.44 7.62-1.15 15.22-1.71 22.83-.1 2.33-1.93 3.96-3.86 4.96h-8.41c-4.9-1.57-4.4-7.2-4.52-11.26 3.89-.15 9.27 1.2 11.5-3.04.48-4.2-1.5-8.23-2.28-12.3l.69.09z"/><path fill="#bb0516" d="M151.47 167.77c5.55 5.78 12.6 9.85 18.49 15.28-.54 4.2.73 10.13-4.41 11.95h-8.25c-2.17-.76-4.01-2.6-4.16-4.98-.54-7.42-1.24-14.82-1.67-22.25z"/><path fill="#017b4d" d="M4.44 170.67c4.17-.57 8.38-.66 12.56-1-.01 3.39.51 6.75 1.5 9.99.29 1.11.53 2.23.77 3.35-6.76-1.89-12.73-5.97-18.31-10.12 1.01-.94 2.04-2.06 3.48-2.22z"/><path fill="#1e843c" d="M17 169.67l7.21-.55c-.11 1.24-.23 2.5-.38 3.75l2.09.56c-.97.33-1.95.67-2.92 1.02 1.29.21 2.58.43 3.88.66-.33.37-.98 1.12-1.3 1.49-.77-.11-1.53-.22-2.29-.32l1.38 1.44c-2.06.64-4.11 1.28-6.17 1.94a33.83 33.83 0 0 1-1.5-9.99z"/><path fill="#007558" d="M.96 172.89c5.58 4.15 11.55 8.23 18.31 10.12 3.66.64 7.39.5 11.09.5l-.91.12c-7.83.27-15.68.13-23.51.14-2.82.22-4.93-1.97-5.94-4.38v-4.51l.96-1.99z"/><path fill="#4a943a" d="M29.54 177.87c3.74.86 5.26-2.65 6.48-5.42 3.1.34 4.53 3.89 7.73 3.79 1.9 1.87 3.48 4.05 4.37 6.58-4.28.52-8.59.45-12.89.38a77.466 77.466 0 0 1-5.69-5.33z"/><path fill="#2e854a" d="M23.29 176.28c.76.1 1.52.21 2.29.32 1.33.39 2.63.86 3.96 1.27 1.81 1.87 3.7 3.65 5.69 5.33-1.63.02-3.25.14-4.87.31-3.7 0-7.43.14-11.09-.5-.24-1.12-.48-2.24-.77-3.35 2.06-.66 4.11-1.3 6.17-1.94l-1.38-1.44z"/><path fill="#bc0c17" d="M174.05 182.85c4.23 3.39 8.42 6.96 13.38 9.24-1.07 1.14-2.26 2.19-3.67 2.91h-5.06c-5.37-1.63-4.18-7.86-4.65-12.15z"/><path fill="#b90516" d="M91.21 183.65c4.51.31 9.03.08 13.54.15-.28 3.74.41 9-3.8 10.85-2.97.44-6.84 1-8.88-1.79-1.69-2.74-.79-6.18-.86-9.21z"/></svg>